<?xml version="1.0" encoding="UTF-8"?>
<svg id="_レイヤー_2" data-name="レイヤー 2" xmlns="http://www.w3.org/2000/svg" xmlns:xlink="http://www.w3.org/1999/xlink" viewBox="0 0 992.13 992.13">
  <defs>
    <style>
      .cls-1 {
        fill: none;
      }

      .cls-2 {
        clip-path: url(#clippath-17);
      }

      .cls-3 {
        clip-path: url(#clippath-19);
      }

      .cls-4 {
        clip-path: url(#clippath-11);
      }

      .cls-5 {
        clip-path: url(#clippath-16);
      }

      .cls-6 {
        clip-path: url(#clippath-18);
      }

      .cls-7 {
        clip-path: url(#clippath-10);
      }

      .cls-8 {
        clip-path: url(#clippath-15);
      }

      .cls-9 {
        clip-path: url(#clippath-13);
      }

      .cls-10 {
        clip-path: url(#clippath-14);
      }

      .cls-11 {
        clip-path: url(#clippath-12);
      }

      .cls-12 {
        clip-path: url(#clippath-61);
      }

      .cls-13 {
        clip-path: url(#clippath-67);
      }

      .cls-14 {
        clip-path: url(#clippath-68);
      }

      .cls-15 {
        clip-path: url(#clippath-60);
      }

      .cls-16 {
        clip-path: url(#clippath-65);
      }

      .cls-17 {
        clip-path: url(#clippath-62);
      }

      .cls-18 {
        clip-path: url(#clippath-64);
      }

      .cls-19 {
        clip-path: url(#clippath-66);
      }

      .cls-20 {
        clip-path: url(#clippath-63);
      }

      .cls-21 {
        clip-path: url(#clippath-50);
      }

      .cls-22 {
        clip-path: url(#clippath-55);
      }

      .cls-23 {
        clip-path: url(#clippath-52);
      }

      .cls-24 {
        clip-path: url(#clippath-57);
      }

      .cls-25 {
        clip-path: url(#clippath-54);
      }

      .cls-26 {
        clip-path: url(#clippath-56);
      }

      .cls-27 {
        clip-path: url(#clippath-53);
      }

      .cls-28 {
        clip-path: url(#clippath-70);
      }

      .cls-29 {
        clip-path: url(#clippath-71);
      }

      .cls-30 {
        clip-path: url(#clippath-73);
      }

      .cls-31 {
        clip-path: url(#clippath-72);
      }

      .cls-32 {
        clip-path: url(#clippath-51);
      }

      .cls-33 {
        clip-path: url(#clippath-58);
      }

      .cls-34 {
        clip-path: url(#clippath-59);
      }

      .cls-35 {
        clip-path: url(#clippath-31);
      }

      .cls-36 {
        clip-path: url(#clippath-32);
      }

      .cls-37 {
        clip-path: url(#clippath-33);
      }

      .cls-38 {
        clip-path: url(#clippath-34);
      }

      .cls-39 {
        clip-path: url(#clippath-35);
      }

      .cls-40 {
        clip-path: url(#clippath-39);
      }

      .cls-41 {
        clip-path: url(#clippath-30);
      }

      .cls-42 {
        clip-path: url(#clippath-36);
      }

      .cls-43 {
        clip-path: url(#clippath-37);
      }

      .cls-44 {
        clip-path: url(#clippath-38);
      }

      .cls-45 {
        clip-path: url(#clippath-27);
      }

      .cls-46 {
        clip-path: url(#clippath-29);
      }

      .cls-47 {
        clip-path: url(#clippath-26);
      }

      .cls-48 {
        clip-path: url(#clippath-28);
      }

      .cls-49 {
        clip-path: url(#clippath-20);
      }

      .cls-50 {
        clip-path: url(#clippath-21);
      }

      .cls-51 {
        clip-path: url(#clippath-22);
      }

      .cls-52 {
        clip-path: url(#clippath-23);
      }

      .cls-53 {
        clip-path: url(#clippath-24);
      }

      .cls-54 {
        clip-path: url(#clippath-25);
      }

      .cls-55 {
        clip-path: url(#clippath-69);
      }

      .cls-56 {
        clip-path: url(#clippath-41);
      }

      .cls-57 {
        clip-path: url(#clippath-42);
      }

      .cls-58 {
        clip-path: url(#clippath-43);
      }

      .cls-59 {
        clip-path: url(#clippath-44);
      }

      .cls-60 {
        clip-path: url(#clippath-45);
      }

      .cls-61 {
        clip-path: url(#clippath-49);
      }

      .cls-62 {
        clip-path: url(#clippath-40);
      }

      .cls-63 {
        clip-path: url(#clippath-46);
      }

      .cls-64 {
        clip-path: url(#clippath-47);
      }

      .cls-65 {
        clip-path: url(#clippath-48);
      }

      .cls-66 {
        clip-path: url(#clippath-1);
      }

      .cls-67 {
        clip-path: url(#clippath-3);
      }

      .cls-68 {
        clip-path: url(#clippath-4);
      }

      .cls-69 {
        clip-path: url(#clippath-2);
      }

      .cls-70 {
        clip-path: url(#clippath-7);
      }

      .cls-71 {
        clip-path: url(#clippath-6);
      }

      .cls-72 {
        clip-path: url(#clippath-9);
      }

      .cls-73 {
        clip-path: url(#clippath-8);
      }

      .cls-74 {
        clip-path: url(#clippath-5);
      }

      .cls-75 {
        fill: #fff;
      }

      .cls-76 {
        fill: #f5f5ff;
      }

      .cls-77 {
        fill: #d9d9e6;
      }

      .cls-78 {
        fill: #f4d9b3;
      }

      .cls-79 {
        fill: #6d4e4d;
      }

      .cls-80 {
        fill: #f4c5ae;
      }

      .cls-81 {
        fill: #9ca7e2;
      }

      .cls-82 {
        fill: #f9d7ad;
      }

      .cls-83 {
        fill: #f8d6ad;
      }

      .cls-84 {
        clip-path: url(#clippath);
      }
    </style>
    <clipPath id="clippath">
      <rect class="cls-1" width="992.13" height="992.13"/>
    </clipPath>
    <clipPath id="clippath-1">
      <rect class="cls-1" x="518.95" y="268.81" width="80" height="85.33"/>
    </clipPath>
    <clipPath id="clippath-2">
      <path class="cls-1" d="M665.31,400.34c-.35,1.08-.99,1.95-1.91,2.61s-1.95.99-3.09.99l-263.72.23c-.23,0-.46.35-.7.82l43.49-138.82c.7-2.17,1.97-3.93,3.81-5.28,1.84-1.35,3.91-2.03,6.19-2.05h253.26c1.27.04,2.35.51,3.26,1.4,1.01.91,1.68,2.02,2.02,3.32.34,1.31.29,2.6-.16,3.89l-42.44,132.89Z"/>
    </clipPath>
    <clipPath id="clippath-3">
      <rect class="cls-1" x="478.95" y="338.14" width="142.67" height="67.89"/>
    </clipPath>
    <clipPath id="clippath-4">
      <path class="cls-1" d="M665.31,400.34c-.35,1.08-.99,1.95-1.91,2.61s-1.95.99-3.09.99l-263.72.23c-.23,0-.46.35-.7.82l43.49-138.82c.7-2.17,1.97-3.93,3.81-5.28,1.84-1.35,3.91-2.03,6.19-2.05h253.26c1.27.04,2.35.51,3.26,1.4,1.01.91,1.68,2.02,2.02,3.32.34,1.31.29,2.6-.16,3.89l-42.44,132.89Z"/>
    </clipPath>
    <clipPath id="clippath-5">
      <rect class="cls-1" x="542.95" y="358.14" width="28" height="47.89"/>
    </clipPath>
    <clipPath id="clippath-6">
      <path class="cls-1" d="M665.31,400.34c-.35,1.08-.99,1.95-1.91,2.61s-1.95.99-3.09.99l-263.72.23c-.23,0-.46.35-.7.82l43.49-138.82c.7-2.17,1.97-3.93,3.81-5.28,1.84-1.35,3.91-2.03,6.19-2.05h253.26c1.27.04,2.35.51,3.26,1.4,1.01.91,1.68,2.02,2.02,3.32.34,1.31.29,2.6-.16,3.89l-42.44,132.89Z"/>
    </clipPath>
    <clipPath id="clippath-7">
      <rect class="cls-1" x="441.62" y="328.81" width="58.67" height="52"/>
    </clipPath>
    <clipPath id="clippath-8">
      <path class="cls-1" d="M665.31,400.34c-.35,1.08-.99,1.95-1.91,2.61s-1.95.99-3.09.99l-263.72.23c-.23,0-.46.35-.7.82l43.49-138.82c.7-2.17,1.97-3.93,3.81-5.28,1.84-1.35,3.91-2.03,6.19-2.05h253.26c1.27.04,2.35.51,3.26,1.4,1.01.91,1.68,2.02,2.02,3.32.34,1.31.29,2.6-.16,3.89l-42.44,132.89Z"/>
    </clipPath>
    <clipPath id="clippath-9">
      <rect class="cls-1" x="532.29" y="286.14" width="49.33" height="84"/>
    </clipPath>
    <clipPath id="clippath-10">
      <path class="cls-1" d="M665.31,400.34c-.35,1.08-.99,1.95-1.91,2.61s-1.95.99-3.09.99l-263.72.23c-.23,0-.46.35-.7.82l43.49-138.82c.7-2.17,1.97-3.93,3.81-5.28,1.84-1.35,3.91-2.03,6.19-2.05h253.26c1.27.04,2.35.51,3.26,1.4,1.01.91,1.68,2.02,2.02,3.32.34,1.31.29,2.6-.16,3.89l-42.44,132.89Z"/>
    </clipPath>
    <clipPath id="clippath-11">
      <rect class="cls-1" x="502.95" y="336.81" width="45.33" height="52"/>
    </clipPath>
    <clipPath id="clippath-12">
      <path class="cls-1" d="M665.31,400.34c-.35,1.08-.99,1.95-1.91,2.61s-1.95.99-3.09.99l-263.72.23c-.23,0-.46.35-.7.82l43.49-138.82c.7-2.17,1.97-3.93,3.81-5.28,1.84-1.35,3.91-2.03,6.19-2.05h253.26c1.27.04,2.35.51,3.26,1.4,1.01.91,1.68,2.02,2.02,3.32.34,1.31.29,2.6-.16,3.89l-42.44,132.89Z"/>
    </clipPath>
    <clipPath id="clippath-13">
      <rect class="cls-1" x="553.62" y="340.81" width="21.33" height="65.22"/>
    </clipPath>
    <clipPath id="clippath-14">
      <path class="cls-1" d="M665.31,400.34c-.35,1.08-.99,1.95-1.91,2.61s-1.95.99-3.09.99l-263.72.23c-.23,0-.46.35-.7.82l43.49-138.82c.7-2.17,1.97-3.93,3.81-5.28,1.84-1.35,3.91-2.03,6.19-2.05h253.26c1.27.04,2.35.51,3.26,1.4,1.01.91,1.68,2.02,2.02,3.32.34,1.31.29,2.6-.16,3.89l-42.44,132.89Z"/>
    </clipPath>
    <clipPath id="clippath-15">
      <rect class="cls-1" x="540.29" y="343.48" width="13.33" height="62.56"/>
    </clipPath>
    <clipPath id="clippath-16">
      <path class="cls-1" d="M665.31,400.34c-.35,1.08-.99,1.95-1.91,2.61s-1.95.99-3.09.99l-263.72.23c-.23,0-.46.35-.7.82l43.49-138.82c.7-2.17,1.97-3.93,3.81-5.28,1.84-1.35,3.91-2.03,6.19-2.05h253.26c1.27.04,2.35.51,3.26,1.4,1.01.91,1.68,2.02,2.02,3.32.34,1.31.29,2.6-.16,3.89l-42.44,132.89Z"/>
    </clipPath>
    <clipPath id="clippath-17">
      <rect class="cls-1" x="541.62" y="359.48" width="29.33" height="12"/>
    </clipPath>
    <clipPath id="clippath-18">
      <path class="cls-1" d="M665.31,400.34c-.35,1.08-.99,1.95-1.91,2.61s-1.95.99-3.09.99l-263.72.23c-.23,0-.46.35-.7.82l43.49-138.82c.7-2.17,1.97-3.93,3.81-5.28,1.84-1.35,3.91-2.03,6.19-2.05h253.26c1.27.04,2.35.51,3.26,1.4,1.01.91,1.68,2.02,2.02,3.32.34,1.31.29,2.6-.16,3.89l-42.44,132.89Z"/>
    </clipPath>
    <clipPath id="clippath-19">
      <rect class="cls-1" x="590.95" y="359.48" width="12" height="22.67"/>
    </clipPath>
    <clipPath id="clippath-20">
      <path class="cls-1" d="M665.31,400.34c-.35,1.08-.99,1.95-1.91,2.61s-1.95.99-3.09.99l-263.72.23c-.23,0-.46.35-.7.82l43.49-138.82c.7-2.17,1.97-3.93,3.81-5.28,1.84-1.35,3.91-2.03,6.19-2.05h253.26c1.27.04,2.35.51,3.26,1.4,1.01.91,1.68,2.02,2.02,3.32.34,1.31.29,2.6-.16,3.89l-42.44,132.89Z"/>
    </clipPath>
    <clipPath id="clippath-21">
      <rect class="cls-1" x="589.62" y="383.48" width="4" height="22.56"/>
    </clipPath>
    <clipPath id="clippath-22">
      <path class="cls-1" d="M665.31,400.34c-.35,1.08-.99,1.95-1.91,2.61s-1.95.99-3.09.99l-263.72.23c-.23,0-.46.35-.7.82l43.49-138.82c.7-2.17,1.97-3.93,3.81-5.28,1.84-1.35,3.91-2.03,6.19-2.05h253.26c1.27.04,2.35.51,3.26,1.4,1.01.91,1.68,2.02,2.02,3.32.34,1.31.29,2.6-.16,3.89l-42.44,132.89Z"/>
    </clipPath>
    <clipPath id="clippath-23">
      <rect class="cls-1" x="530.95" y="286.14" width="90.67" height="119.89"/>
    </clipPath>
    <clipPath id="clippath-24">
      <path class="cls-1" d="M665.31,400.34c-.35,1.08-.99,1.95-1.91,2.61s-1.95.99-3.09.99l-263.72.23c-.23,0-.46.35-.7.82l43.49-138.82c.7-2.17,1.97-3.93,3.81-5.28,1.84-1.35,3.91-2.03,6.19-2.05h253.26c1.27.04,2.35.51,3.26,1.4,1.01.91,1.68,2.02,2.02,3.32.34,1.31.29,2.6-.16,3.89l-42.44,132.89Z"/>
    </clipPath>
    <clipPath id="clippath-25">
      <rect class="cls-1" x="572.29" y="308.81" width="8" height="6.67"/>
    </clipPath>
    <clipPath id="clippath-26">
      <path class="cls-1" d="M665.31,400.34c-.35,1.08-.99,1.95-1.91,2.61s-1.95.99-3.09.99l-263.72.23c-.23,0-.46.35-.7.82l43.49-138.82c.7-2.17,1.97-3.93,3.81-5.28,1.84-1.35,3.91-2.03,6.19-2.05h253.26c1.27.04,2.35.51,3.26,1.4,1.01.91,1.68,2.02,2.02,3.32.34,1.31.29,2.6-.16,3.89l-42.44,132.89Z"/>
    </clipPath>
    <clipPath id="clippath-27">
      <rect class="cls-1" x="572.29" y="311.48" width="6.67" height="8"/>
    </clipPath>
    <clipPath id="clippath-28">
      <path class="cls-1" d="M665.31,400.34c-.35,1.08-.99,1.95-1.91,2.61s-1.95.99-3.09.99l-263.72.23c-.23,0-.46.35-.7.82l43.49-138.82c.7-2.17,1.97-3.93,3.81-5.28,1.84-1.35,3.91-2.03,6.19-2.05h253.26c1.27.04,2.35.51,3.26,1.4,1.01.91,1.68,2.02,2.02,3.32.34,1.31.29,2.6-.16,3.89l-42.44,132.89Z"/>
    </clipPath>
    <clipPath id="clippath-29">
      <rect class="cls-1" x="540.29" y="311.48" width="5.33" height="12"/>
    </clipPath>
    <clipPath id="clippath-30">
      <path class="cls-1" d="M665.31,400.34c-.35,1.08-.99,1.95-1.91,2.61s-1.95.99-3.09.99l-263.72.23c-.23,0-.46.35-.7.82l43.49-138.82c.7-2.17,1.97-3.93,3.81-5.28,1.84-1.35,3.91-2.03,6.19-2.05h253.26c1.27.04,2.35.51,3.26,1.4,1.01.91,1.68,2.02,2.02,3.32.34,1.31.29,2.6-.16,3.89l-42.44,132.89Z"/>
    </clipPath>
    <clipPath id="clippath-31">
      <rect class="cls-1" x="549.62" y="302.14" width="12" height="4"/>
    </clipPath>
    <clipPath id="clippath-32">
      <path class="cls-1" d="M665.31,400.34c-.35,1.08-.99,1.95-1.91,2.61s-1.95.99-3.09.99l-263.72.23c-.23,0-.46.35-.7.82l43.49-138.82c.7-2.17,1.97-3.93,3.81-5.28,1.84-1.35,3.91-2.03,6.19-2.05h253.26c1.27.04,2.35.51,3.26,1.4,1.01.91,1.68,2.02,2.02,3.32.34,1.31.29,2.6-.16,3.89l-42.44,132.89Z"/>
    </clipPath>
    <clipPath id="clippath-33">
      <rect class="cls-1" x="533.62" y="302.14" width="9.33" height="4"/>
    </clipPath>
    <clipPath id="clippath-34">
      <path class="cls-1" d="M665.31,400.34c-.35,1.08-.99,1.95-1.91,2.61s-1.95.99-3.09.99l-263.72.23c-.23,0-.46.35-.7.82l43.49-138.82c.7-2.17,1.97-3.93,3.81-5.28,1.84-1.35,3.91-2.03,6.19-2.05h253.26c1.27.04,2.35.51,3.26,1.4,1.01.91,1.68,2.02,2.02,3.32.34,1.31.29,2.6-.16,3.89l-42.44,132.89Z"/>
    </clipPath>
    <clipPath id="clippath-35">
      <rect class="cls-1" x="554.95" y="308.81" width="2.67" height="5.33"/>
    </clipPath>
    <clipPath id="clippath-36">
      <path class="cls-1" d="M665.31,400.34c-.35,1.08-.99,1.95-1.91,2.61s-1.95.99-3.09.99l-263.72.23c-.23,0-.46.35-.7.82l43.49-138.82c.7-2.17,1.97-3.93,3.81-5.28,1.84-1.35,3.91-2.03,6.19-2.05h253.26c1.27.04,2.35.51,3.26,1.4,1.01.91,1.68,2.02,2.02,3.32.34,1.31.29,2.6-.16,3.89l-42.44,132.89Z"/>
    </clipPath>
    <clipPath id="clippath-37">
      <rect class="cls-1" x="553.62" y="308.81" width="4" height="5.33"/>
    </clipPath>
    <clipPath id="clippath-38">
      <path class="cls-1" d="M665.31,400.34c-.35,1.08-.99,1.95-1.91,2.61s-1.95.99-3.09.99l-263.72.23c-.23,0-.46.35-.7.82l43.49-138.82c.7-2.17,1.97-3.93,3.81-5.28,1.84-1.35,3.91-2.03,6.19-2.05h253.26c1.27.04,2.35.51,3.26,1.4,1.01.91,1.68,2.02,2.02,3.32.34,1.31.29,2.6-.16,3.89l-42.44,132.89Z"/>
    </clipPath>
    <clipPath id="clippath-39">
      <rect class="cls-1" x="537.62" y="310.14" width="4" height="4"/>
    </clipPath>
    <clipPath id="clippath-40">
      <path class="cls-1" d="M665.31,400.34c-.35,1.08-.99,1.95-1.91,2.61s-1.95.99-3.09.99l-263.72.23c-.23,0-.46.35-.7.82l43.49-138.82c.7-2.17,1.97-3.93,3.81-5.28,1.84-1.35,3.91-2.03,6.19-2.05h253.26c1.27.04,2.35.51,3.26,1.4,1.01.91,1.68,2.02,2.02,3.32.34,1.31.29,2.6-.16,3.89l-42.44,132.89Z"/>
    </clipPath>
    <clipPath id="clippath-41">
      <rect class="cls-1" x="537.62" y="308.81" width="4" height="6.67"/>
    </clipPath>
    <clipPath id="clippath-42">
      <path class="cls-1" d="M665.31,400.34c-.35,1.08-.99,1.95-1.91,2.61s-1.95.99-3.09.99l-263.72.23c-.23,0-.46.35-.7.82l43.49-138.82c.7-2.17,1.97-3.93,3.81-5.28,1.84-1.35,3.91-2.03,6.19-2.05h253.26c1.27.04,2.35.51,3.26,1.4,1.01.91,1.68,2.02,2.02,3.32.34,1.31.29,2.6-.16,3.89l-42.44,132.89Z"/>
    </clipPath>
    <clipPath id="clippath-43">
      <rect class="cls-1" x="544.29" y="324.81" width="10.67" height="5.33"/>
    </clipPath>
    <clipPath id="clippath-44">
      <path class="cls-1" d="M665.31,400.34c-.35,1.08-.99,1.95-1.91,2.61s-1.95.99-3.09.99l-263.72.23c-.23,0-.46.35-.7.82l43.49-138.82c.7-2.17,1.97-3.93,3.81-5.28,1.84-1.35,3.91-2.03,6.19-2.05h253.26c1.27.04,2.35.51,3.26,1.4,1.01.91,1.68,2.02,2.02,3.32.34,1.31.29,2.6-.16,3.89l-42.44,132.89Z"/>
    </clipPath>
    <clipPath id="clippath-45">
      <rect class="cls-1" x="542.95" y="324.81" width="13.33" height="6.67"/>
    </clipPath>
    <clipPath id="clippath-46">
      <path class="cls-1" d="M665.31,400.34c-.35,1.08-.99,1.95-1.91,2.61s-1.95.99-3.09.99l-263.72.23c-.23,0-.46.35-.7.82l43.49-138.82c.7-2.17,1.97-3.93,3.81-5.28,1.84-1.35,3.91-2.03,6.19-2.05h253.26c1.27.04,2.35.51,3.26,1.4,1.01.91,1.68,2.02,2.02,3.32.34,1.31.29,2.6-.16,3.89l-42.44,132.89Z"/>
    </clipPath>
    <clipPath id="clippath-47">
      <rect class="cls-1" x="528.29" y="346.14" width="20" height="59.89"/>
    </clipPath>
    <clipPath id="clippath-48">
      <path class="cls-1" d="M665.31,400.34c-.35,1.08-.99,1.95-1.91,2.61s-1.95.99-3.09.99l-263.72.23c-.23,0-.46.35-.7.82l43.49-138.82c.7-2.17,1.97-3.93,3.81-5.28,1.84-1.35,3.91-2.03,6.19-2.05h253.26c1.27.04,2.35.51,3.26,1.4,1.01.91,1.68,2.02,2.02,3.32.34,1.31.29,2.6-.16,3.89l-42.44,132.89Z"/>
    </clipPath>
    <clipPath id="clippath-49">
      <rect class="cls-1" x="560.29" y="342.14" width="25.33" height="63.89"/>
    </clipPath>
    <clipPath id="clippath-50">
      <path class="cls-1" d="M665.31,400.34c-.35,1.08-.99,1.95-1.91,2.61s-1.95.99-3.09.99l-263.72.23c-.23,0-.46.35-.7.82l43.49-138.82c.7-2.17,1.97-3.93,3.81-5.28,1.84-1.35,3.91-2.03,6.19-2.05h253.26c1.27.04,2.35.51,3.26,1.4,1.01.91,1.68,2.02,2.02,3.32.34,1.31.29,2.6-.16,3.89l-42.44,132.89Z"/>
    </clipPath>
    <clipPath id="clippath-51">
      <rect class="cls-1" x="545.62" y="332.81" width="18.67" height="10.67"/>
    </clipPath>
    <clipPath id="clippath-52">
      <path class="cls-1" d="M665.31,400.34c-.35,1.08-.99,1.95-1.91,2.61s-1.95.99-3.09.99l-263.72.23c-.23,0-.46.35-.7.82l43.49-138.82c.7-2.17,1.97-3.93,3.81-5.28,1.84-1.35,3.91-2.03,6.19-2.05h253.26c1.27.04,2.35.51,3.26,1.4,1.01.91,1.68,2.02,2.02,3.32.34,1.31.29,2.6-.16,3.89l-42.44,132.89Z"/>
    </clipPath>
    <clipPath id="clippath-53">
      <rect class="cls-1" x="529.62" y="363.48" width="10.67" height="10.67"/>
    </clipPath>
    <clipPath id="clippath-54">
      <path class="cls-1" d="M665.31,400.34c-.35,1.08-.99,1.95-1.91,2.61s-1.95.99-3.09.99l-263.72.23c-.23,0-.46.35-.7.82l43.49-138.82c.7-2.17,1.97-3.93,3.81-5.28,1.84-1.35,3.91-2.03,6.19-2.05h253.26c1.27.04,2.35.51,3.26,1.4,1.01.91,1.68,2.02,2.02,3.32.34,1.31.29,2.6-.16,3.89l-42.44,132.89Z"/>
    </clipPath>
    <clipPath id="clippath-55">
      <rect class="cls-1" x="569.62" y="363.48" width="14.67" height="16"/>
    </clipPath>
    <clipPath id="clippath-56">
      <path class="cls-1" d="M665.31,400.34c-.35,1.08-.99,1.95-1.91,2.61s-1.95.99-3.09.99l-263.72.23c-.23,0-.46.35-.7.82l43.49-138.82c.7-2.17,1.97-3.93,3.81-5.28,1.84-1.35,3.91-2.03,6.19-2.05h253.26c1.27.04,2.35.51,3.26,1.4,1.01.91,1.68,2.02,2.02,3.32.34,1.31.29,2.6-.16,3.89l-42.44,132.89Z"/>
    </clipPath>
    <clipPath id="clippath-57">
      <rect class="cls-1" x="517.62" y="268.81" width="82.67" height="84"/>
    </clipPath>
    <clipPath id="clippath-58">
      <path class="cls-1" d="M665.31,400.34c-.35,1.08-.99,1.95-1.91,2.61s-1.95.99-3.09.99l-263.72.23c-.23,0-.46.35-.7.82l43.49-138.82c.7-2.17,1.97-3.93,3.81-5.28,1.84-1.35,3.91-2.03,6.19-2.05h253.26c1.27.04,2.35.51,3.26,1.4,1.01.91,1.68,2.02,2.02,3.32.34,1.31.29,2.6-.16,3.89l-42.44,132.89Z"/>
    </clipPath>
    <clipPath id="clippath-59">
      <rect class="cls-1" x="517.62" y="364.81" width="10.67" height="41.22"/>
    </clipPath>
    <clipPath id="clippath-60">
      <path class="cls-1" d="M665.31,400.34c-.35,1.08-.99,1.95-1.91,2.61s-1.95.99-3.09.99l-263.72.23c-.23,0-.46.35-.7.82l43.49-138.82c.7-2.17,1.97-3.93,3.81-5.28,1.84-1.35,3.91-2.03,6.19-2.05h253.26c1.27.04,2.35.51,3.26,1.4,1.01.91,1.68,2.02,2.02,3.32.34,1.31.29,2.6-.16,3.89l-42.44,132.89Z"/>
    </clipPath>
    <clipPath id="clippath-61">
      <rect class="cls-1" x="441.62" y="328.81" width="72" height="77.22"/>
    </clipPath>
    <clipPath id="clippath-62">
      <path class="cls-1" d="M665.31,400.34c-.35,1.08-.99,1.95-1.91,2.61s-1.95.99-3.09.99l-263.72.23c-.23,0-.46.35-.7.82l43.49-138.82c.7-2.17,1.97-3.93,3.81-5.28,1.84-1.35,3.91-2.03,6.19-2.05h253.26c1.27.04,2.35.51,3.26,1.4,1.01.91,1.68,2.02,2.02,3.32.34,1.31.29,2.6-.16,3.89l-42.44,132.89Z"/>
    </clipPath>
    <clipPath id="clippath-63">
      <rect class="cls-1" x="440.29" y="338.14" width="54.67" height="67.89"/>
    </clipPath>
    <clipPath id="clippath-64">
      <path class="cls-1" d="M665.31,400.34c-.35,1.08-.99,1.95-1.91,2.61s-1.95.99-3.09.99l-263.72.23c-.23,0-.46.35-.7.82l43.49-138.82c.7-2.17,1.97-3.93,3.81-5.28,1.84-1.35,3.91-2.03,6.19-2.05h253.26c1.27.04,2.35.51,3.26,1.4,1.01.91,1.68,2.02,2.02,3.32.34,1.31.29,2.6-.16,3.89l-42.44,132.89Z"/>
    </clipPath>
    <clipPath id="clippath-65">
      <rect class="cls-1" x="478.95" y="375.48" width="21.33" height="5.33"/>
    </clipPath>
    <clipPath id="clippath-66">
      <path class="cls-1" d="M665.31,400.34c-.35,1.08-.99,1.95-1.91,2.61s-1.95.99-3.09.99l-263.72.23c-.23,0-.46.35-.7.82l43.49-138.82c.7-2.17,1.97-3.93,3.81-5.28,1.84-1.35,3.91-2.03,6.19-2.05h253.26c1.27.04,2.35.51,3.26,1.4,1.01.91,1.68,2.02,2.02,3.32.34,1.31.29,2.6-.16,3.89l-42.44,132.89Z"/>
    </clipPath>
    <clipPath id="clippath-67">
      <rect class="cls-1" x="590.95" y="392.81" width="8" height="13.22"/>
    </clipPath>
    <clipPath id="clippath-68">
      <path class="cls-1" d="M665.31,400.34c-.35,1.08-.99,1.95-1.91,2.61s-1.95.99-3.09.99l-263.72.23c-.23,0-.46.35-.7.82l43.49-138.82c.7-2.17,1.97-3.93,3.81-5.28,1.84-1.35,3.91-2.03,6.19-2.05h253.26c1.27.04,2.35.51,3.26,1.4,1.01.91,1.68,2.02,2.02,3.32.34,1.31.29,2.6-.16,3.89l-42.44,132.89Z"/>
    </clipPath>
    <clipPath id="clippath-69">
      <rect class="cls-1" x="730.95" y="150.14" width="124.7" height="122.67"/>
    </clipPath>
    <clipPath id="clippath-70">
      <rect class="cls-1" x="836.29" y="150.14" width="19.37" height="16"/>
    </clipPath>
    <clipPath id="clippath-71">
      <rect class="cls-1" x="185.62" y="842.14" width="117.33" height="22.48"/>
    </clipPath>
    <clipPath id="clippath-72">
      <rect class="cls-1" x="185.62" y="840.81" width="117.33" height="23.82"/>
    </clipPath>
    <clipPath id="clippath-73">
      <rect class="cls-1" x="458.95" y="134.63" width="104" height="80.85"/>
    </clipPath>
  </defs>
  <g id="_レイヤー_1-2" data-name="レイヤー 1">
    <g class="cls-84">
      <path class="cls-75" d="M757.31,490.12l40.99,348.95c.05.44.06.88.03,1.32-.03.44-.11.88-.23,1.3-.12.43-.28.83-.48,1.23-.2.4-.44.77-.71,1.11-.28.34-.58.66-.92.95-.34.29-.7.54-1.09.76-.39.21-.79.39-1.21.53-.42.14-.85.23-1.29.28h-.08c-.44.06-.88.07-1.32.04s-.88-.11-1.3-.23c-.42-.12-.83-.28-1.23-.48-.4-.2-.77-.44-1.11-.71-.34-.27-.66-.58-.95-.92-.29-.34-.54-.7-.76-1.08-.22-.39-.4-.79-.53-1.21s-.23-.85-.28-1.29l-41-348.95c-.05-.44-.06-.88-.02-1.32.03-.44.11-.88.23-1.3.13-.43.29-.84.48-1.23.2-.4.44-.77.71-1.11.28-.35.58-.67.92-.95.34-.29.7-.54,1.09-.76.39-.21.79-.39,1.21-.53.42-.14.85-.23,1.29-.29h.08c.44-.06.88-.07,1.32-.03.44.04.88.11,1.3.23.42.12.83.28,1.23.48.4.2.77.44,1.11.71.35.28.67.58.95.92.29.33.54.7.76,1.08.22.39.4.79.53,1.21.14.42.23.85.28,1.29Z"/>
      <path d="M792.17,847.84c-.93,0-1.83-.18-2.7-.52-.87-.33-1.65-.81-2.35-1.43-.69-.62-1.26-1.34-1.69-2.17-.43-.82-.7-1.7-.82-2.63l-41.28-348.91c-.07-.5-.08-1-.04-1.51s.12-1,.26-1.48c.14-.49.32-.96.55-1.41.23-.45.51-.88.82-1.27s.67-.76,1.05-1.08c.39-.32.8-.61,1.24-.85.44-.24.91-.44,1.39-.59.48-.15.97-.24,1.48-.3.49-.07.99-.08,1.49-.05s.99.11,1.47.25c.48.13.95.31,1.4.53.45.23.87.49,1.27.8s.76.65,1.08,1.03.61.79.85,1.23c.25.43.45.89.6,1.37.15.47.26.96.32,1.46l41.16,348.91c.17,1.02.11,2.02-.15,3.01-.27.99-.72,1.89-1.36,2.69-.65.77-1.42,1.4-2.3,1.88-.89.48-1.82.79-2.82.92l-.93.11ZM750.89,485.32h-.7c-.38.05-.76.13-1.13.24-.36.11-.72.27-1.05.46-.34.19-.65.41-.95.66-.29.25-.56.53-.8.83-.23.3-.44.63-.61.97-.18.34-.31.7-.42,1.07s-.17.75-.19,1.14c-.03.38-.02.77.03,1.15l41.28,349.03c.04.39.11.76.22,1.13.11.38.26.73.45,1.07.18.34.4.66.65.96s.53.56.83.8c.3.24.63.44.98.62.34.17.7.31,1.08.41s.76.16,1.15.18c.39.02.77,0,1.16-.05.39-.05.76-.13,1.13-.24.37-.11.72-.27,1.06-.45s.66-.41.95-.66.57-.52.81-.82c.24-.3.46-.63.64-.97s.32-.7.43-1.07.18-.75.22-1.14.03-.77-.01-1.16l-41.28-348.91c-.09-.72-.3-1.41-.64-2.06s-.78-1.21-1.33-1.69-1.16-.85-1.84-1.1c-.68-.26-1.39-.39-2.12-.38Z"/>
      <path class="cls-75" d="M697.8,492.46l-40.99,348.95c-.05.44-.15.87-.29,1.29-.14.42-.31.82-.53,1.21-.22.39-.47.74-.76,1.08s-.6.64-.95.92-.72.51-1.11.71c-.39.2-.8.36-1.23.48s-.86.2-1.3.23c-.44.03-.88.03-1.32-.03h-.08c-.44-.06-.87-.16-1.29-.29s-.82-.31-1.21-.53c-.39-.21-.74-.47-1.08-.76s-.64-.6-.92-.95c-.28-.35-.52-.72-.71-1.11-.2-.4-.36-.81-.48-1.23-.12-.43-.2-.86-.23-1.3s-.03-.89.03-1.32l41-348.95c.05-.44.14-.87.28-1.29.14-.42.31-.82.53-1.21.22-.39.47-.75.76-1.09.29-.33.6-.64.95-.92s.72-.51,1.11-.71c.39-.2.8-.36,1.23-.48.43-.12.86-.2,1.3-.23.44-.04.88-.03,1.32.02h.08c.44.06.87.16,1.29.29.42.14.83.31,1.21.53.39.21.74.47,1.08.76s.65.6.92.95c.28.34.52.72.71,1.11.2.4.36.81.48,1.23.12.42.2.86.23,1.3.04.44.03.89-.03,1.32Z"/>
      <path d="M649.49,847.84h-.93c-.5-.06-.99-.16-1.46-.32-.48-.16-.93-.35-1.37-.6s-.85-.53-1.23-.86c-.38-.32-.72-.69-1.03-1.08-.31-.39-.57-.81-.8-1.26s-.41-.92-.54-1.4c-.13-.48-.21-.98-.25-1.48-.03-.5-.02-.99.05-1.49l41.16-348.9c.13-1.02.44-1.96.94-2.85.51-.89,1.16-1.65,1.96-2.27,1.67-1.22,3.53-1.72,5.58-1.51,1.01.1,1.95.4,2.84.89.89.48,1.65,1.12,2.28,1.91.65.8,1.1,1.7,1.39,2.68.29.99.36,1.99.24,3.02l-41.28,348.79c-.05.46-.14.92-.27,1.36-.14.44-.31.87-.52,1.29-.21.41-.46.8-.74,1.17-.28.36-.6.7-.94,1.02-.35.31-.72.58-1.11.82s-.81.44-1.24.6c-.44.17-.88.29-1.34.37-.45.08-.92.12-1.38.12ZM643.68,839.47c-.05.38-.06.77-.03,1.15.03.39.09.77.19,1.14.1.37.24.73.42,1.07s.38.67.61.97c.24.3.51.58.8.83.3.25.61.47.95.66.33.19.69.34,1.05.45.37.12.74.2,1.13.24,1.64.22,3.11-.16,4.42-1.16,1.2-1.06,1.94-2.38,2.21-3.95l41.16-348.91c.05-.39.06-.77.03-1.15s-.09-.76-.19-1.14c-.1-.37-.24-.72-.42-1.07-.17-.34-.38-.67-.62-.97-.23-.3-.5-.58-.8-.83-.29-.25-.6-.47-.94-.66-.33-.19-.69-.34-1.05-.46-.37-.12-.74-.2-1.13-.24-1.64-.23-3.11.16-4.42,1.16-1.2,1.06-1.94,2.37-2.21,3.95l-41.16,348.91Z"/>
      <path d="M744.14,492.07l.58,6.4s6.16-2.79,13.84,3.48l-.93-11.51-13.49,1.63Z"/>
      <path d="M684.03,490.44l-1.86,14.53s.58-6.51,14.07-5.93l1.28-6.97-13.49-1.63Z"/>
      <path class="cls-75" d="M391.98,490.06l41,348.95c.05.44.06.88.02,1.32-.03.44-.11.88-.23,1.3-.13.43-.29.84-.48,1.23-.2.39-.44.77-.71,1.11-.28.35-.58.67-.92.95-.34.29-.7.54-1.09.76-.39.22-.79.39-1.21.53-.42.14-.85.23-1.29.28h-.08c-.44.06-.88.07-1.32.03-.44-.03-.88-.11-1.3-.23-.42-.12-.83-.28-1.23-.48-.4-.2-.77-.44-1.11-.71-.34-.28-.66-.58-.95-.92-.29-.34-.54-.7-.76-1.09-.22-.39-.4-.79-.53-1.21s-.23-.85-.28-1.29l-41-348.95c-.05-.44-.06-.88-.02-1.32.03-.44.11-.88.23-1.3.12-.42.28-.83.48-1.23.2-.4.44-.77.71-1.11.28-.34.58-.66.92-.95.34-.29.7-.54,1.09-.76.39-.22.79-.4,1.21-.53.42-.14.85-.23,1.29-.28h.08c.44-.06.88-.07,1.32-.04.44.04.88.11,1.3.23.42.12.83.28,1.23.48s.77.44,1.11.71c.34.28.66.58.95.92.29.34.54.7.76,1.08.22.39.4.79.53,1.21s.23.85.28,1.29Z"/>
      <path d="M426.59,847.84c-.93,0-1.83-.18-2.7-.52-.87-.33-1.65-.81-2.35-1.43-.69-.62-1.26-1.34-1.69-2.17-.43-.82-.7-1.7-.82-2.63l-41.28-348.91c-.06-.5-.08-1-.04-1.51s.12-1,.26-1.48c.14-.49.32-.96.55-1.41.23-.45.5-.88.81-1.27.32-.4.67-.76,1.05-1.08.39-.32.8-.61,1.24-.85.45-.24.91-.44,1.39-.59.48-.15.98-.24,1.48-.3.5-.07.99-.08,1.49-.05s.99.11,1.47.25c.48.13.95.31,1.4.53.45.23.87.49,1.26.8.4.31.76.65,1.08,1.03.33.38.61.79.86,1.23.24.43.44.89.6,1.37.16.47.26.96.32,1.46l41.28,348.91c.12,1.02.04,2.03-.24,3.01-.28.99-.74,1.89-1.39,2.69-.65.77-1.41,1.4-2.3,1.88-.88.48-1.82.79-2.82.92l-.93.11ZM385.43,485.32h-.7c-.79.06-1.53.28-2.22.67s-1.27.9-1.73,1.55c-1.03,1.26-1.45,2.69-1.28,4.3l41.28,349.03c.04.39.11.76.22,1.14.11.37.27.72.45,1.06.19.34.4.66.65.96s.53.56.83.8c.31.24.63.44.98.62.35.17.71.31,1.08.41s.76.16,1.14.18.77,0,1.16-.05c.39-.05.76-.13,1.13-.24.37-.11.72-.27,1.06-.45s.66-.41.95-.66.57-.52.81-.82c.24-.3.45-.63.63-.97.18-.34.33-.7.44-1.07s.18-.75.21-1.14.03-.77,0-1.16l-41.28-348.91c-.08-.71-.29-1.39-.63-2.03-.33-.64-.76-1.2-1.3-1.68-.54-.48-1.14-.85-1.81-1.12-.67-.26-1.36-.4-2.08-.41Z"/>
      <path class="cls-75" d="M331.96,492.4l-41,348.95c-.05.44-.15.87-.28,1.29s-.31.82-.53,1.21c-.22.39-.47.74-.76,1.08-.29.34-.6.64-.95.92s-.72.51-1.11.71-.8.36-1.23.48-.86.2-1.3.23c-.44.04-.88.03-1.32-.02h-.08c-.44-.06-.87-.16-1.29-.29s-.83-.31-1.21-.53c-.39-.21-.75-.47-1.08-.76-.34-.29-.65-.6-.92-.95-.28-.34-.52-.71-.71-1.11-.2-.4-.36-.81-.48-1.23-.12-.43-.2-.86-.23-1.3s-.03-.89.03-1.32l40.99-348.95c.05-.44.15-.87.28-1.29.14-.42.31-.82.53-1.21.21-.39.47-.75.76-1.09.29-.33.6-.64.95-.92.34-.28.72-.51,1.11-.71.4-.2.81-.36,1.23-.48.43-.12.86-.2,1.3-.23.44-.04.88-.03,1.32.02h.08c.44.06.87.16,1.29.29.42.14.82.31,1.21.53.39.21.74.47,1.08.76s.64.6.92.95c.28.34.51.72.71,1.11.2.4.36.81.48,1.23.12.43.2.86.23,1.3.03.44.03.89-.03,1.32Z"/>
      <path d="M283.92,847.84h-.82c-.5-.05-.99-.15-1.48-.3-.48-.15-.94-.34-1.39-.58-.44-.24-.85-.53-1.24-.85-.39-.32-.73-.68-1.05-1.08-.31-.4-.58-.82-.81-1.27-.23-.45-.41-.92-.55-1.41-.14-.48-.22-.98-.26-1.48s-.02-1.01.04-1.51l41.17-349.02c.06-.5.16-.99.32-1.48.16-.48.36-.94.61-1.38.24-.44.54-.85.87-1.24.33-.38.7-.73,1.1-1.04s.83-.57,1.29-.8c.45-.22.93-.4,1.42-.53.49-.13.99-.21,1.49-.23.51-.03,1.01,0,1.51.07.99.13,1.94.43,2.82.91.89.48,1.65,1.11,2.3,1.88.62.81,1.06,1.71,1.32,2.7.27.98.33,1.98.19,2.99l-41.16,348.91c-.13.93-.41,1.81-.85,2.64s-1.02,1.55-1.72,2.17c-.7.62-1.49,1.09-2.38,1.43-.88.33-1.78.51-2.72.51ZM278.1,839.47c-.05.38-.06.77-.03,1.15.03.39.09.77.2,1.14.1.37.24.73.41,1.07.18.34.38.67.62.97s.51.58.8.83.6.47.94.66c.34.19.69.34,1.06.45.36.12.74.2,1.13.24,1.63.22,3.1-.16,4.42-1.16,1.21-1.06,1.94-2.38,2.21-3.95l41.16-348.91c.05-.39.06-.77.03-1.15-.03-.39-.09-.76-.19-1.14-.1-.37-.24-.73-.42-1.07-.17-.34-.38-.67-.61-.97s-.51-.58-.8-.83-.61-.47-.94-.66c-.34-.19-.69-.34-1.06-.46s-.74-.2-1.13-.24c-1.64-.23-3.11.16-4.42,1.16-1.21,1.05-1.94,2.37-2.21,3.95l-41.17,348.91Z"/>
      <path d="M378.68,492.07l.46,6.4s6.16-2.79,13.95,3.48l-.93-11.51-13.49,1.63Z"/>
      <path d="M318.45,490.44l-1.86,14.53s.58-6.51,14.07-5.93l1.28-6.97-13.49-1.63Z"/>
      <path class="cls-75" d="M289.26,480.33h484.53c.44,0,.88.04,1.32.13.43.09.85.22,1.27.39.41.17.8.38,1.17.63.36.24.71.53,1.02.84s.59.65.84,1.02.45.76.62,1.17c.17.41.3.83.39,1.27.09.43.13.87.13,1.31v.08c0,.44-.04.88-.13,1.31-.08.44-.21.86-.39,1.27-.17.41-.38.8-.62,1.17s-.53.71-.84,1.02-.66.59-1.02.84c-.37.25-.76.45-1.17.63-.41.17-.83.3-1.27.39-.44.08-.88.13-1.32.13h-484.53c-.45,0-.89-.05-1.32-.13-.44-.09-.85-.21-1.27-.39s-.8-.38-1.17-.63c-.37-.24-.71-.53-1.02-.84s-.59-.65-.84-1.02-.45-.76-.63-1.17c-.17-.41-.3-.83-.38-1.27-.09-.43-.13-.87-.13-1.31v-.08c0-.44.04-.88.13-1.31.08-.44.21-.86.38-1.27.17-.41.38-.8.63-1.17s.53-.71.84-1.02.65-.59,1.02-.84c.37-.25.76-.45,1.17-.63.41-.17.83-.3,1.27-.39.43-.08.87-.13,1.32-.13Z"/>
      <path d="M773.68,494.86h-484.42c-.51,0-1.01-.05-1.5-.15-.49-.1-.97-.24-1.44-.44-.47-.19-.91-.43-1.33-.71-.42-.28-.81-.6-1.16-.96-.36-.35-.68-.74-.96-1.16-.28-.42-.52-.86-.71-1.33-.19-.46-.34-.94-.44-1.44s-.15-.99-.15-1.49.05-1.01.15-1.5.24-.97.44-1.44c.19-.47.43-.91.71-1.33.28-.42.6-.81.96-1.16.35-.36.74-.68,1.16-.95.42-.28.86-.52,1.33-.71.46-.19.94-.34,1.44-.43.49-.1.99-.15,1.5-.15h484.42c.51,0,1,.05,1.49.15.49.09.97.24,1.44.43.46.19.91.43,1.32.71.42.28.81.59,1.17.95s.67.74.95,1.16.52.86.71,1.33c.19.46.34.94.44,1.44s.15.99.15,1.5-.05,1-.15,1.49-.24.97-.44,1.44c-.19.47-.43.91-.71,1.33s-.6.81-.95,1.16-.74.68-1.17.96c-.42.28-.86.52-1.32.71-.47.19-.95.34-1.44.44-.49.09-.99.15-1.49.15ZM289.26,481.26c-.39,0-.78.04-1.16.11-.38.08-.75.19-1.11.34-.36.15-.7.33-1.03.55-.32.21-.63.46-.9.74s-.52.57-.73.9c-.22.32-.4.67-.55,1.03-.15.36-.27.73-.34,1.11-.08.39-.11.77-.11,1.16s.04.77.11,1.16c.07.38.19.75.34,1.11.15.36.33.7.55,1.03.21.32.46.63.73.9.28.27.58.52.9.73.32.22.67.4,1.03.55.36.15.73.27,1.11.34.39.08.77.11,1.16.11h484.42c.39,0,.78-.04,1.16-.11.38-.07.76-.19,1.11-.34.36-.15.7-.33,1.02-.55.33-.21.63-.46.9-.73.28-.28.52-.58.74-.9.21-.32.4-.67.55-1.03.15-.36.26-.73.34-1.11.07-.39.11-.77.11-1.16s-.04-.78-.11-1.16c-.08-.38-.19-.75-.34-1.11-.15-.36-.33-.7-.55-1.03-.22-.32-.46-.63-.74-.9-.28-.28-.57-.53-.9-.74-.32-.22-.66-.4-1.02-.55-.36-.15-.73-.26-1.11-.34s-.77-.11-1.16-.11h-484.42Z"/>
      <path class="cls-80" d="M448.33,808.65l-3.84-21.28-35,4.65,5.81,27.32s4.54,3.37,12.44,2.67c2.56-.11,9.89-3.02,9.89-3.02"/>
      <path class="cls-81" d="M585.89,479.63h-61.63l-15.93-51.04h61.51l16.05,51.04Z"/>
      <path d="M585.89,480.44h-61.63c-.4-.02-.67-.21-.82-.58l-16.05-51.04c-.02-.28.02-.55.12-.82.24-.19.51-.3.81-.35h61.51c.41.07.68.31.81.7l16.05,51.04c.02.24-.02.47-.11.7-.19.21-.42.32-.7.35ZM524.96,478.7h59.65l-15.46-49.3h-59.65l15.46,49.3Z"/>
      <path class="cls-81" d="M655.08,433.94h-262.79c-.44,0-.88-.03-1.31-.08-.44-.05-.86-.13-1.29-.22s-.85-.22-1.26-.38-.82-.32-1.21-.52-.77-.42-1.14-.66c-.37-.24-.72-.5-1.06-.79-.33-.28-.65-.58-.95-.9-.3-.32-.58-.65-.84-1.01-.27-.35-.51-.72-.72-1.1s-.42-.77-.59-1.17c-.17-.41-.32-.82-.45-1.23-.13-.42-.22-.85-.3-1.28s-.13-.86-.15-1.3c-.03-.44-.03-.88,0-1.32s.08-.87.16-1.3.18-.86.31-1.28l49.88-158.82c.34-1.15.86-2.22,1.55-3.2.69-.98,1.52-1.83,2.48-2.55.97-.71,2.02-1.26,3.16-1.63s2.31-.55,3.51-.54h262.91c.44,0,.88.03,1.32.08.43.06.86.14,1.29.24s.85.23,1.26.39c.41.15.81.33,1.2.53.4.2.77.42,1.14.67s.72.51,1.05.79c.33.29.65.59.95.91.3.32.58.66.84,1.02.26.36.49.72.71,1.11.21.38.41.78.58,1.18s.32.82.44,1.24.22.85.29,1.29c.07.43.11.87.14,1.31s.02.88-.02,1.32-.09.88-.17,1.31c-.08.43-.19.85-.32,1.28l-49.77,158.7c-.36,1.15-.89,2.21-1.59,3.19s-1.54,1.83-2.51,2.54c-.97.71-2.04,1.26-3.18,1.63-1.15.38-2.32.56-3.53.55Z"/>
      <path d="M655.08,434.87h-262.79c-.95.01-1.9-.1-2.83-.32-.93-.22-1.82-.55-2.67-.98-.85-.43-1.64-.96-2.36-1.59-.72-.63-1.36-1.33-1.91-2.1-.58-.77-1.05-1.58-1.43-2.46s-.65-1.79-.81-2.72c-.16-.94-.21-1.89-.15-2.84.07-.95.24-1.89.53-2.79l49.77-158.82c.39-1.23.97-2.38,1.72-3.42.76-1.05,1.66-1.95,2.7-2.72,1.05-.76,2.18-1.34,3.41-1.74,1.23-.4,2.49-.6,3.79-.6h262.91c1.93.02,3.76.46,5.48,1.34s3.15,2.1,4.29,3.66c.56.77,1.03,1.59,1.4,2.47.36.88.63,1.79.78,2.73.15.94.19,1.89.11,2.83s-.26,1.88-.55,2.78l-49.77,158.82c-.39,1.23-.97,2.37-1.72,3.42-.76,1.05-1.66,1.95-2.7,2.72-1.05.76-2.18,1.34-3.41,1.74-1.23.4-2.49.6-3.79.6ZM442.05,253.5c-1.1,0-2.18.18-3.23.53s-2.02.85-2.91,1.51c-.89.66-1.66,1.44-2.29,2.34-.64.91-1.12,1.89-1.44,2.95l-49.89,158.81c-.11.39-.2.78-.27,1.18s-.11.8-.13,1.2c-.02.41-.02.81.01,1.21.03.4.08.8.15,1.2.07.4.17.79.29,1.18.12.39.26.77.42,1.14s.34.73.55,1.08.42.69.66,1.01c.24.33.5.64.78.93s.57.57.88.83.63.51.96.73c.34.22.69.43,1.05.61.36.19.73.35,1.11.49.38.14.76.26,1.16.36.39.1.79.17,1.19.22.4.06.8.08,1.21.09h262.79c1.11.01,2.21-.16,3.27-.5,1.06-.34,2.05-.84,2.95-1.5.9-.66,1.67-1.45,2.32-2.36.65-.91,1.13-1.9,1.46-2.97l49.77-158.81c.52-1.56.65-3.16.38-4.78-.27-1.63-.9-3.09-1.89-4.41-.97-1.34-2.19-2.4-3.67-3.16-1.48-.76-3.05-1.14-4.71-1.15h-262.91Z"/>
      <path class="cls-75" d="M665.31,400.34c-.17.53-.42,1.01-.74,1.46-.33.45-.72.83-1.17,1.16s-.94.57-1.46.74c-.53.17-1.07.25-1.63.25l-263.72.23c-.23,0-.46.35-.7.82l43.49-138.82c.34-1.06.84-2.04,1.49-2.94s1.43-1.68,2.32-2.34c.9-.66,1.88-1.16,2.93-1.51s2.14-.53,3.26-.54h253.26c1.27.04,2.35.51,3.26,1.4.49.44.91.95,1.26,1.52.34.56.59,1.17.76,1.81s.23,1.29.21,1.95-.15,1.31-.36,1.93l-42.44,132.89Z"/>
      <path d="M395.89,405.8h-.35c-.11-.04-.22-.1-.31-.18s-.15-.18-.2-.29c-.05-.11-.06-.23-.06-.35s.04-.23.1-.34l43.49-138.7c.36-1.15.89-2.21,1.59-3.2.7-.98,1.54-1.82,2.52-2.54.97-.71,2.03-1.25,3.18-1.63,1.15-.37,2.32-.55,3.53-.55h253.26c1.48,0,2.76.5,3.84,1.51.56.51,1.04,1.09,1.43,1.73.39.65.68,1.34.87,2.08.18.73.26,1.48.22,2.23-.03.76-.18,1.49-.43,2.21l-42.44,132.77c-.2.61-.49,1.18-.87,1.7s-.83.97-1.35,1.34c-.52.38-1.09.66-1.7.86-.61.19-1.24.29-1.89.28l-263.48.23-.23.34c-.11.33-.35.49-.7.47ZM449.38,259.78c-1.03,0-2.03.16-2.99.48-.97.32-1.88.79-2.7,1.39-.82.6-1.54,1.33-2.13,2.16-.6.83-1.05,1.74-1.36,2.71l-42.91,136.73,263.02-.23c.46,0,.92-.07,1.36-.21.44-.15.85-.35,1.22-.63.38-.27.7-.59.97-.96.28-.38.48-.78.63-1.22l42.44-132.78c.18-.55.28-1.13.3-1.71s-.04-1.16-.19-1.72-.36-1.1-.66-1.6-.66-.95-1.08-1.35c-.76-.69-1.65-1.04-2.67-1.05h-253.26Z"/>
      <path d="M509.38,434.52c.93.93,1.97,4.77,1.97,4.77l62.79,4.77-2.79-9.07s-63.6-1.98-61.97-.47Z"/>
      <path class="cls-81" d="M687.75,460.91h75.93c.65,0,1.27.12,1.87.37s1.13.6,1.58,1.06.81.99,1.06,1.58c.25.6.38,1.22.38,1.87v9.42c0,.65-.13,1.27-.38,1.87-.24.6-.6,1.13-1.06,1.58s-.98.81-1.58,1.06c-.6.25-1.22.38-1.87.38h-75.93c-.65,0-1.27-.13-1.87-.38-.59-.24-1.13-.6-1.58-1.06s-.81-.98-1.06-1.58-.37-1.22-.37-1.87v-9.42c0-.65.12-1.27.37-1.87.25-.59.6-1.13,1.06-1.58s.99-.81,1.58-1.06c.6-.25,1.22-.37,1.87-.37Z"/>
      <path d="M763.68,480.91h-76.05c-.38,0-.74-.04-1.11-.11-.37-.07-.72-.18-1.07-.32-.34-.15-.67-.32-.98-.53s-.6-.44-.86-.71c-.26-.27-.5-.55-.71-.86s-.38-.64-.53-.98c-.14-.34-.25-.7-.32-1.07-.07-.37-.11-.74-.11-1.11v-9.42c0-.38.04-.74.11-1.11.07-.37.18-.72.32-1.07.15-.35.32-.68.53-.98.21-.31.45-.6.71-.86.27-.27.55-.5.86-.71s.64-.39.98-.53c.35-.15.7-.26,1.07-.33.36-.07.73-.11,1.11-.11h76.05c.38,0,.74.04,1.11.11.37.07.72.18,1.07.33.34.14.67.32.98.53.31.21.6.44.86.71.27.27.51.55.71.86.21.31.39.64.53.99.14.34.25.7.32,1.07.07.36.11.73.11,1.11v9.42c0,.38-.04.74-.11,1.11-.07.36-.18.72-.32,1.07-.15.34-.32.67-.53.98-.2.31-.44.6-.71.86-.26.27-.55.5-.86.71-.31.21-.64.38-.98.53-.35.14-.7.25-1.07.32-.36.07-.73.11-1.11.11ZM687.63,461.84c-.53,0-1.03.1-1.52.3s-.91.48-1.28.86c-.37.37-.66.8-.85,1.28-.2.48-.3.99-.3,1.51v9.42c0,.53.1,1.03.3,1.52.2.48.48.91.85,1.28s.8.66,1.28.86c.48.2.99.3,1.52.3h76.05c.53,0,1.03-.1,1.51-.3.48-.2.91-.49,1.29-.86.37-.37.66-.8.85-1.28.2-.48.3-.99.3-1.52v-9.42c0-.52-.1-1.03-.3-1.51-.2-.48-.48-.91-.85-1.28s-.8-.66-1.29-.86-.98-.3-1.51-.3h-76.05Z"/>
      <path class="cls-75" d="M632.52,460.91h65.93c.57,0,1.12.11,1.65.33.53.21.99.53,1.4.93.41.4.71.86.93,1.4.22.53.33,1.07.33,1.65v10.58c0,.57-.11,1.12-.33,1.65s-.53.99-.93,1.4-.86.71-1.4.93c-.53.22-1.07.33-1.65.33h-65.93c-.57,0-1.12-.11-1.65-.33-.53-.22-.99-.53-1.4-.93s-.72-.87-.94-1.4c-.21-.53-.32-1.08-.32-1.65v-10.58c0-.57.11-1.12.32-1.65.22-.53.53-.99.94-1.4.4-.41.86-.72,1.4-.93.53-.22,1.07-.33,1.65-.33Z"/>
      <path d="M698.45,480.91h-65.93c-.68,0-1.33-.13-1.96-.39-.63-.26-1.18-.63-1.66-1.11-.48-.48-.85-1.03-1.11-1.66-.26-.63-.39-1.28-.39-1.96v-10.58c0-.68.13-1.33.39-1.96.26-.63.63-1.18,1.11-1.66s1.03-.85,1.66-1.11c.63-.26,1.28-.39,1.96-.39h65.93c.34,0,.68.02,1.01.08.33.06.66.16.97.28.31.13.61.28.89.47.29.19.55.4.79.64s.45.5.64.78c.19.29.34.58.47.9s.22.64.28.97c.06.33.08.67.08,1.01v10.58c0,.34-.02.67-.08,1.01-.06.33-.16.66-.28.97-.13.32-.28.61-.47.9s-.4.54-.64.78-.5.45-.79.64c-.28.18-.58.34-.89.47-.32.13-.64.22-.97.28-.33.06-.67.09-1.01.08ZM632.52,461.84c-.45,0-.88.09-1.29.26-.41.17-.78.41-1.09.73s-.56.68-.73,1.09c-.17.41-.26.84-.26,1.29v10.58c0,.45.09.88.26,1.29.17.41.42.78.73,1.09.32.31.68.56,1.09.73s.84.26,1.29.26h65.93c.45,0,.88-.08,1.29-.26s.78-.42,1.09-.73c.32-.32.56-.68.73-1.09.17-.42.26-.84.26-1.29v-10.58c0-.45-.09-.88-.26-1.29-.17-.41-.41-.78-.73-1.09s-.68-.56-1.09-.73c-.41-.17-.84-.26-1.29-.26h-65.93Z"/>
      <path d="M694.38,472.54h-60.46c-.23-.03-.43-.14-.59-.31-.15-.18-.23-.38-.23-.62,0-.22.08-.42.24-.57.16-.16.35-.24.58-.24h60.46c.23,0,.44.07.62.23s.28.35.31.58c-.03.24-.13.46-.3.63s-.39.28-.63.3Z"/>
      <path class="cls-82" d="M234.73,404.64c1.51-.58-10.23,22.44-5.81,53.83,0,0,3.6,32.2,3.83,41.51.23,9.3-2.32,33.6-3.6,37.67-1.28,4.07-3.02,6.4.81,8.6,3.84,2.21,40.93.23,40.93.23,0,0,33.14,0,38.6.93,5.46.93,14.07,6.86,18.14,3.48,4.07-3.37,2.09-7.56.93-11.39-1.17-3.84-7.09-30-4.77-40.46,2.33-10.46,13.38-34.65,12.91-37.67-.34-2.01-.81-3.98-1.4-5.93,0,0,28.03,33.37,43.14,37.09,15.12,3.72,25.93-9.07,26.63-9.07s24.3-26.16,30.58-41.62c0,0-1.28-6.28-12.67-13.37-11.4-7.09-20.23-4.77-20.23-4.77l-18.6,22.44s-30.35-34.18-40.11-42.44-22.09-23.37-39.77-13.6c0,0-16.63,16.74-49.54,11.16-13.38-2.32-20,3.38-20,3.38Z"/>
      <path class="cls-80" d="M523.92,740.99s6.51,14.88,6.97,16.85c.46,1.98-3.37,8.26-11.63,11.86-8.26,3.6-21.17,4.65-21.86,3.03-.7-1.63-8.14-19.07-8.14-19.07,0,0,19.53-13.14,26.63-14.42,7.09-1.28,8.03,1.74,8.03,1.74Z"/>
      <path class="cls-80" d="M253.92,394.18c-.82.58,8.83,9.88,25.46,7.21,0,0,18.49-3.14,25.58-12.68,0,0-13.14,2.09-18.6-5.58,0,0-2.44-10.46,1.05-14.42,3.49-3.95,5.47-4.89,8.6-4.77,3.14.11,12.56.93,13.72-4.89s-.12-14.88,1.4-17.67c1.51-2.79,3.95-5.23,2.91-6.86-1.05-1.63-8.95-4.77-9.19-11.63s1.98-20.58-8.95-24.53-31.86,14.18-30.81,29.3-2.56,60.57-11.16,66.51Z"/>
      <path class="cls-79" d="M192.75,444.05l-10.35-2.33s4.07-22.9,17.91-35.46c13.84-12.56,20.58-27.2,22.09-36.74,1.52-9.53-3.6-31.63-5.46-46.73-1.86-15.11,4.07-44.65,32.44-52.9,25.58-7.56,48.49,3.02,57.21,18.95.63,1.1,1.18,2.24,1.65,3.41.47,1.18.85,2.38,1.15,3.61.3,1.23.51,2.48.63,3.74.13,1.26.16,2.52.1,3.79s-.2,2.52-.43,3.76c-.23,1.24-.56,2.47-.96,3.67s-.9,2.36-1.46,3.49c-.57,1.13-1.22,2.21-1.95,3.25,0,0-1.86-14.65-7.21-18.02-3.02-1.86-6.16,6.74-6.16,6.74,0,0-6.86,25.23-11.74,19.53s-8.14-2.21-8.14-2.21c0,0-4.88,2.91-1.97,11.16,1.63,4.77,6.16,9.07,6.16,9.07,0,0-.46,17.21.58,26.74,1.05,9.54-6.98,25.34-18.95,45.46-1.76,2.88-3.16,5.93-4.2,9.14s-1.68,6.5-1.93,9.87c-.25,3.36-.1,6.71.44,10.04.55,3.33,1.47,6.55,2.78,9.67,0,0-46.39,1.28-51.28-6.4s1.28-30.58,1.28-30.58c0,0-13.37,13.37-12.21,26.28Z"/>
      <path class="cls-81" d="M232.75,548.46s-22.67,42.21-13.83,71.04c8.83,28.83,46.74,30.34,68.83,29.76s72.09.7,73.6,2.21c1.52,1.51,26.28,120.8,39.65,141.84,0,0,1.17,3.26,6.98,2.44l38.95-5.81s4.07.82,4.07-6.28-9.53-59.41-9.53-59.41c0,0-11.86-46.97-11.63-46.62l38.38,62.08s15.35,21.04,16.51,22.21c1.16,1.16,22.21.23,33.72-6.74s13.49-11.63,13.14-13.26c-.35-1.63-17.21-41.97-17.21-41.97,0,0-37.33-78.13-55-106.15-17.68-28.02-22.56-47.43-60.46-44.06-24.18,2.2-48.14,5.88-71.86,11.05l-3.95-10.11c-12.91-2.86-25.97-4.38-39.18-4.54-21.52-.35-51.17,2.32-51.17,2.32Z"/>
      <path d="M527.87,753.78c-.31-.04-.55-.19-.7-.46-1.74-3.26-1.86-3.72-1.17-4.3.19-.12.39-.17.6-.15.22.03.41.11.56.27.15.21.22.44.23.7l1.28,2.67c.13.21.16.43.08.66-.07.23-.21.4-.43.51l-.46.11Z"/>
      <g class="cls-66">
        <g class="cls-69">
          <path class="cls-79" d="M535.08,280.12c-.12.11-9.19,5.11-11.98,20-2.79,14.88-10.93,40.57,11.05,48.36,0,0,56.05,6.51,59.89,5.35,3.84-1.17,5.81-15.93,3.84-23.49-1.98-7.55-6.52-45.11-26.52-55.69,0,0-24.77-14.77-36.28,5.46Z"/>
        </g>
      </g>
      <g class="cls-67">
        <g class="cls-68">
          <path class="cls-77" d="M479.49,375.34s6.16,29.88,9.77,39.42c.93,2.67,5.34,10.11,5.34,10.11h20l10.7-8.95,1.52,8.95,64.18-.58.23-28.83,6.86,29.53h22.91l-11.74-58.02s-4.31-14.65-17.79-17.91c-13.49-3.26-27.68-18.25-50-4.88,0,0-16.28,6.4-19.65,6.86-3.38.46-9.77,3.49-12.79,14.42-1.94,7.28-3.49,14.65-4.65,22.09l-6.51-13.83-18.38,1.63Z"/>
        </g>
      </g>
      <g class="cls-74">
        <g class="cls-71">
          <path class="cls-75" d="M543.45,363.13s4.42,7.56,11.98,7.44,15.11-11.16,15.11-11.16l-15.93,64.99-1.97.23-9.19-61.51Z"/>
        </g>
      </g>
      <g class="cls-70">
        <g class="cls-73">
          <path class="cls-80" d="M445.89,340.81s-3.49-2.33-3.37-3.6c.11-1.28.7-2.44,2.67-2.33,1.98.11,5.23,2.91,5.23,2.91,0,0,8.02,5.93,13.26,5.46,0,0-7.21-3.95-7.68-10.58-.46-6.63,4.54-1.28,5.7.46,1.17,1.74,5.47,7.56,13.26,8.84,7.79,1.28,10.7.23,13.84,6.63s10.23,28.37,10.23,28.37c0,0-9.89,5.46-18.84,1.51,0,0-5.35-18.6-6.51-19.42s-8.84-2.32-16.16-5.7c-7.33-3.37-15.23-7.21-15.58-10.69-.35-3.49,3.95-1.86,3.95-1.86Z"/>
        </g>
      </g>
      <g class="cls-72">
        <g class="cls-7">
          <path class="cls-80" d="M544.73,290.24s-2.79-5.93-5.35.7c-2.05,5.09-4.38,10.05-6.98,14.88.63,3.58,1.02,7.19,1.17,10.81.11,5,3.02,19.3,12.44,21.86,0,0,.82,3.37-2.09,4.89,0,0-.93-.47-1.05.93-.12,1.4.58,18.83.58,18.83,0,0,3.03,7.56,12.79,6.74s14.3-10.46,14.3-10.46l3.38-18.37s-3.03-5.23-2.44-10.46c.58-5.23-.82-8.83,2.32-9.53s6.98-2.44,7.68-8.26-1.63-9.42-5.12-7.91c-3.48,1.51-4.53,4.3-8.72,1.28-4.19-3.02-12.79-15.81-12.79-15.81,0,0-4.54-6.98-10.11-.12Z"/>
        </g>
      </g>
      <g class="cls-4">
        <g class="cls-11">
          <path d="M504.38,388.36h-.23c-.23-.06-.42-.18-.55-.39s-.18-.42-.15-.66c1.4-5.35,1.74-7.21,1.74-7.21l.46-2.09c2.44-13.02,4.77-25.35,18.03-29.07,4.42-1.16,8.95-2.79,12.56-4.07,2.44-.92,4.92-1.69,7.44-2.33.93-.23,1.74-1.74,1.51-3.95-.04-.24.03-.46.19-.65.17-.19.37-.28.62-.28.47-.12.82.23.93.7.35,3.37-1.16,5.46-2.91,5.81l-7.21,2.32c-3.72,1.28-8.26,2.91-12.68,4.19-12.21,3.37-14.3,14.65-16.74,27.67l-.46,2.09-1.74,7.21c-.03.2-.12.37-.28.51-.16.13-.33.2-.54.19Z"/>
        </g>
      </g>
      <g class="cls-9">
        <g class="cls-10">
          <path d="M554.61,425.34h-.23c-.23-.06-.41-.19-.52-.4s-.14-.43-.06-.65c15.58-54.76,18.38-81.27,18.38-81.5.03-.23.13-.43.31-.58s.39-.23.62-.23c.23.03.43.13.58.31.16.18.23.39.23.62-.12.35-2.79,26.97-18.38,81.85-.19.39-.5.58-.93.58Z"/>
        </g>
      </g>
      <g class="cls-8">
        <g class="cls-5">
          <path d="M552.63,425.45c-.23,0-.44-.07-.62-.23s-.28-.35-.31-.58c-.11-5-1.86-14.42-3.83-25.23-3.49-18.95-7.79-42.44-5.93-55.22.06-.23.19-.42.39-.55.2-.14.42-.18.66-.15.46.11.81.46.7.93-1.86,12.44,2.44,35.92,5.93,54.76,1.98,10.81,3.72,20.23,3.84,25.35,0,.23-.07.44-.23.62s-.35.28-.58.31Z"/>
        </g>
      </g>
      <g class="cls-2">
        <g class="cls-6">
          <path d="M555.66,371.39h-.23c-10.93-.11-12.91-9.07-12.91-9.18-.04-.24.01-.46.14-.66.14-.2.32-.33.56-.39.23-.02.44.05.64.17.2.13.33.31.41.53,0,.35,1.63,7.67,11.17,7.79,9.53.12,13.37-9.18,13.37-9.3.07-.22.2-.4.41-.51.2-.11.42-.14.64-.07.22.06.39.2.51.4s.14.42.08.64c0,.11-3.49,10.58-14.77,10.58Z"/>
        </g>
      </g>
      <g class="cls-3">
        <g class="cls-49">
          <path d="M592.63,381.04h-.11c-.13-.01-.23-.05-.34-.11-.1-.07-.19-.15-.26-.25-.07-.1-.11-.21-.13-.33-.02-.12-.01-.23.03-.35l.35-1.63c1.4-6.98,3.26-15.81,8.95-17.56.22-.06.44-.04.64.07.21.11.34.28.41.51.06.22.04.44-.07.64-.11.2-.29.34-.51.4-4.65,1.52-6.4,9.77-7.79,16.28l-.35,1.74c0,.35-.35.58-.81.58Z"/>
        </g>
      </g>
      <g class="cls-50">
        <g class="cls-51">
          <path d="M591.24,425.34c-.23,0-.44-.07-.62-.23s-.28-.35-.31-.58c-.49-8.88-.45-17.76.12-26.63.23-4.19.46-8.49.58-12.79,0-.23.08-.44.23-.62.15-.18.35-.28.58-.31.46.11.93.46.93.93-.11,4.42-.35,8.72-.58,12.79-.57,8.83-.61,17.67-.12,26.51,0,.24-.07.44-.23.62s-.35.28-.58.31Z"/>
        </g>
      </g>
      <g class="cls-52">
        <g class="cls-53">
          <path d="M620.78,425.68c-.47-.03-.78-.26-.93-.7l-10-51.85c-3.49-11.51-5.11-16.86-13.02-20.58-3.84-1.86-7.79-3.37-11.98-5l-7.09-2.79c-3.37-1.39-5.35-3.14-6.05-5.46-1.63-5.23-.46-15.11-.35-15.58.23-2.79,2.09-3.49,2.21-3.49h.23c1.28,0,4.77-1.74,6.28-4.99s1.97-6.63-.35-8.49c-2.33-1.86-5.93.93-6.05,1.05h-.35c-1.63,1.16-4.19.35-7.33-2.33-3.14-2.67-6.16-6.86-8.48-10.34-2.33-3.49-3.95-5.7-5.35-6.28-5.12-1.74-6.63,1.52-6.63,1.74-.22.33-.53.49-.93.46-.31,0-.54-.23-.69-.69-.12-.47-.58-1.74-1.28-1.74-.81,0-1.86,1.05-2.44,2.56-3.14,10-6.05,13.95-6.86,14.99.23.23.23.7.35.93.45,3.05.64,6.11.58,9.18-.03,1.99.13,3.97.46,5.93,1.19,4.36,3.32,8.19,6.4,11.51,3.14,3.37,6.28,5.35,11.51,4.18,2.44-.58,10.23-3.83,13.26-9.3.1-.22.27-.36.51-.44.23-.07.45-.04.66.09.22.1.36.27.44.5.07.23.04.45-.09.66-3.6,6.4-12.44,9.65-14.42,10.11-6.4,1.51-10.11-1.28-13.14-4.54-3.29-3.58-5.54-7.73-6.74-12.44-.37-2.08-.56-4.17-.58-6.28.04-2.72-.11-5.43-.47-8.14-.46-.11-.46-.7-.46-2.44.01-.22.08-.42.23-.58,0-.12,3.26-3.49,6.74-14.54.58-1.86,2.21-3.83,4.07-3.83.5.02.96.16,1.38.43s.73.64.95,1.08c1.17-1.16,3.61-2.56,7.79-1.16,1.98.69,3.84,3.48,6.17,6.97,2.32,3.49,4.88,7.21,8.14,10,3.26,2.79,4.54,2.79,5.47,2.21.93-.58,0-.12.11-.12s5.23-3.48,8.26-1.04c3.03,2.44,2.91,6.28.81,10.69s-5.58,5.81-7.67,5.93c-.66.54-.97,1.24-.93,2.09,0,.12-1.28,10,.23,14.77.58,1.86,2.21,3.26,5.11,4.42l6.98,2.79c4.3,1.63,8.26,3.26,12.09,5,8.72,4.19,10.46,10,13.95,21.74l10.11,51.97c.04.23-.01.46-.15.66-.14.2-.32.33-.55.39l-.11.11Z"/>
        </g>
      </g>
      <g class="cls-54">
        <g class="cls-47">
          <path d="M573.8,315.35c-.24.04-.46-.03-.65-.19-.19-.17-.28-.37-.28-.62,0-2.68.81-3.95,1.51-4.65.84-.71,1.81-1.06,2.91-1.05.75.16,1.39.51,1.92,1.06.53.55.86,1.2.98,1.96,0,.25-.07.47-.22.67-.16.19-.35.32-.59.38-.11.04-.22.05-.34.03-.11-.02-.22-.06-.31-.13-.09-.07-.17-.16-.22-.27-.05-.1-.07-.21-.06-.33,0-.11-.23-1.51-1.28-1.63-.59-.02-1.09.17-1.52.58-.85.97-1.2,2.09-1.05,3.38,0,.22-.08.42-.23.57s-.35.24-.58.24Z"/>
        </g>
      </g>
      <g class="cls-45">
        <g class="cls-48">
          <path d="M574.38,318.37c-.4-.02-.67-.21-.81-.58-.08-.23-.06-.44.06-.65.12-.21.29-.34.52-.4.54-.22,1-.56,1.37-1.02s.61-.97.72-1.54c0-.23,0-.7-.23-.82-.23-.11-.93-.11-1.28,0-.22.08-.45.07-.66-.03s-.36-.27-.44-.49c-.08-.22-.07-.44.03-.66.1-.21.27-.36.49-.44.48-.19.97-.27,1.48-.23.51.04.98.2,1.42.46.7.61,1.01,1.39.93,2.32-.1.94-.45,1.77-1.04,2.51s-1.32,1.26-2.21,1.56h-.35Z"/>
        </g>
      </g>
      <g class="cls-46">
        <g class="cls-41">
          <path d="M544.03,322.32h-.46c-.23-.23-2.56-1.51-2.91-3.26-.06-.76.17-1.42.7-1.97,1.13-1.4,1.83-2.99,2.09-4.77.06-.24.18-.44.38-.59.2-.16.42-.23.67-.22.23.06.42.19.55.39.14.2.18.42.15.66-.32,2.14-1.18,4.04-2.56,5.7-.23.35-.23.46-.23.58s1.28,1.51,1.98,1.86c.22.13.38.31.44.56.07.26.04.49-.09.71-.17.24-.4.36-.7.35Z"/>
        </g>
      </g>
      <g class="cls-35">
        <g class="cls-36">
          <path d="M559.61,305.47h-.69c-1.1-.63-2.28-.99-3.54-1.09-1.26-.1-2.48.07-3.67.52-.23.05-.46.02-.68-.09-.21-.11-.38-.27-.48-.49-.08-.21-.07-.41.02-.62.09-.2.24-.34.45-.43,1.43-.57,2.9-.8,4.43-.7,1.53.1,2.96.53,4.3,1.28h.23c.41.29.56.68.47,1.16-.18.31-.45.47-.82.46Z"/>
        </g>
      </g>
      <g class="cls-37">
        <g class="cls-38">
          <path d="M535.54,305.81c-.36,0-.63-.15-.81-.46-.06-.1-.09-.22-.1-.34,0-.12.01-.24.06-.35.05-.11.11-.21.2-.3.09-.08.19-.14.31-.18,1.01-.56,2.09-.91,3.24-1.03s2.28-.01,3.39.33c.21.1.36.27.46.49.09.22.09.45,0,.67-.04.11-.1.22-.18.31-.08.09-.18.16-.29.2-.11.05-.23.07-.35.06-.12,0-.23-.04-.34-.09-1.82-.48-3.56-.29-5.23.58l-.35.11Z"/>
        </g>
      </g>
      <g class="cls-39">
        <g class="cls-42">
          <path d="M556.7,311.63c0,.42-.08.77-.23,1.07-.16.29-.35.44-.58.44s-.42-.15-.57-.44c-.16-.3-.24-.65-.24-1.07s.08-.78.24-1.07c.16-.29.35-.44.57-.44s.42.15.58.44c.16.3.23.65.23,1.07Z"/>
        </g>
      </g>
      <g class="cls-43">
        <g class="cls-44">
          <path d="M555.89,313.96c-1.05,0-1.74-1.05-1.74-2.32s.7-2.33,1.74-2.33,1.63.93,1.63,2.33-.7,2.32-1.63,2.32Z"/>
        </g>
      </g>
      <g class="cls-40">
        <g class="cls-62">
          <path d="M540.54,312.1c0,.42-.08.77-.24,1.07-.16.3-.35.44-.57.44s-.42-.15-.58-.44c-.16-.3-.23-.65-.23-1.07s.08-.78.23-1.07c.16-.3.35-.44.58-.44s.42.15.57.44c.16.29.24.65.24,1.07Z"/>
        </g>
      </g>
      <g class="cls-56">
        <g class="cls-57">
          <path d="M541.47,312.1c0,.31-.05.6-.14.89-.09.28-.21.54-.38.76-.17.21-.35.39-.57.5-.21.12-.44.18-.67.18s-.45-.06-.67-.18c-.21-.11-.41-.29-.57-.5-.16-.22-.29-.47-.38-.76-.09-.29-.13-.58-.13-.89s.04-.6.13-.89.22-.54.38-.76.35-.39.57-.51c.21-.11.43-.18.67-.18s.45.06.67.18c.21.12.4.29.57.51.16.22.29.47.38.76s.14.58.14.89Z"/>
        </g>
      </g>
      <g class="cls-58">
        <g class="cls-59">
          <path class="cls-75" d="M545.66,329.18c.93.58,1.74,1.05,4.54.7s5-3.6,4.65-3.6c-3.33-.35-6.66-.43-10-.23-.93,0-.46,2.32.81,3.14Z"/>
        </g>
      </g>
      <g class="cls-60">
        <g class="cls-63">
          <path d="M548.68,330.93c-1.28.04-2.44-.31-3.49-1.05-.6-.39-1.06-.9-1.35-1.56-.29-.66-.39-1.34-.27-2.05.05-.31.2-.56.45-.76.24-.2.52-.3.83-.29h1.51c2.88-.2,5.74-.13,8.6.23.23.07.42.2.57.4s.23.41.24.65c-.12,1.05-2.56,4.07-5.47,4.42h-1.63ZM546.12,328.37c.81.58,1.51.93,4.07.7,1.33-.32,2.41-1.02,3.26-2.09-2.44-.23-5.11-.11-6.97-.11h-1.28c.16.57.47,1.03.93,1.4v.11Z"/>
        </g>
      </g>
      <g class="cls-64">
        <g class="cls-65">
          <path d="M546.24,426.03c-.36,0-.64-.15-.81-.46-4.3-7.68-14.54-36.28-15.23-39.77-.7-3.48,5.58-9.99,8.03-12.56-2.68-1.97-10.35-8.25-9.19-12.44s7.56-13.48,7.79-13.83c.16-.18.36-.3.6-.34.24-.05.46-.01.68.1.19.16.29.37.32.61.02.25-.05.47-.2.67,0,.11-6.28,8.95-7.44,13.25-1.17,4.3,5.35,8.37,9.3,11.16.21.19.32.42.35.7.11.23,0,.46-.23.7-3.72,3.49-8.72,9.54-8.26,11.63.46,2.09,10.81,31.74,15,39.3.13.21.16.43.08.66-.07.23-.21.4-.43.51l-.35.11Z"/>
        </g>
      </g>
      <g class="cls-61">
        <g class="cls-21">
          <path d="M561.47,426.03h-.47c-.2-.15-.33-.34-.38-.59s0-.47.15-.69c7.67-9.99,17.21-32.32,17.32-34.99.12-2.67-4.53-7.91-7.91-11.63-.16-.16-.24-.35-.24-.58s.08-.42.24-.58c6.74-6.16,13.49-13.72,12.91-15.81-1.16-4.77-7.79-16.51-7.91-16.63-.11-.21-.14-.43-.07-.66s.21-.4.42-.51c.21-.11.43-.14.66-.07.22.07.4.21.51.42.23.46,6.86,11.97,8.14,17.09.23.7.35,4.77-12.79,16.86,2.21,2.44,8.03,9.42,7.79,12.21-.23,2.79-10,26.04-17.67,35.92-.19.22-.42.3-.7.23Z"/>
        </g>
      </g>
      <g class="cls-32">
        <g class="cls-23">
          <path d="M546,338.49s-.35,3.72,3.14,3.84c3.49.11,10.58-5,14.19-9.07,0,0-10.81,8.14-17.33,5.23Z"/>
        </g>
      </g>
      <g class="cls-27">
        <g class="cls-25">
          <path d="M530.54,364.06c.21.61.48,1.19.81,1.74.82,1.16,7.21,8.26,7.21,8.26l1.04-.93c-2.48-1.92-4.84-3.97-7.09-6.16-.72-.92-1.39-1.89-1.98-2.91Z"/>
        </g>
      </g>
      <g class="cls-22">
        <g class="cls-26">
          <path d="M570.78,377.43s10.46-10.23,12.67-13.95c0,0-6.74,9.3-11.51,15-.11.11-1.16-1.05-1.16-1.05Z"/>
        </g>
      </g>
      <g class="cls-24">
        <g class="cls-33">
          <path d="M596,351.63c-.38.03-.65-.12-.81-.47-.06-.1-.09-.22-.1-.34,0-.12.02-.24.06-.35.05-.11.11-.21.2-.29.09-.08.19-.15.3-.18,3.95-1.97,2.68-27.32-8.26-53.25-5.7-13.14-13.02-26.16-34.88-26.16-13.26,0-16.63,9.65-16.63,9.77l-.35.46c-10.46,7.09-12.32,19.77-13.6,29.07-.23,1.28-.35,2.56-.58,3.6-2.56,15.46-1.74,26.39,10.58,32.55.2.12.34.29.43.51.08.21.1.43.04.66-.1.25-.28.42-.54.51-.26.09-.5.08-.74-.04-13.26-6.74-14.19-18.26-11.52-34.42.23-1.16.35-2.32.58-3.6,1.4-9.53,3.26-22.55,14.19-30.11.7-1.74,5-10.7,18.14-10.7,23.02,0,30.58,13.48,36.4,27.32,9.88,23.25,13.83,52.32,7.44,55.34l-.35.12Z"/>
        </g>
      </g>
      <g class="cls-34">
        <g class="cls-15">
          <path d="M526.82,425.68c-.24,0-.44-.07-.62-.23s-.28-.35-.31-.58c-.1-2.96-.57-5.88-1.4-8.72-.53-1.68-1.19-3.31-1.97-4.88-2.7-4.84-4.06-10.04-4.07-15.58.03-3.9.53-7.74,1.51-11.51.7-3.26,1.28-5.7.82-8.84-.48-2.97-1.22-5.88-2.21-8.72-.06-.1-.09-.22-.1-.34,0-.13.01-.24.06-.35.04-.11.11-.21.2-.3.09-.08.19-.14.31-.18.22-.08.45-.08.67,0s.39.24.49.46c1.03,2.95,1.76,5.98,2.21,9.07.7,3.49,0,6.28-.7,9.54-.97,3.66-1.47,7.38-1.51,11.16,0,6.74,2.09,11.04,3.84,14.88.85,1.65,1.54,3.35,2.09,5.11.9,2.99,1.41,6.06,1.51,9.19,0,.22-.08.42-.24.57-.16.16-.35.24-.57.24Z"/>
        </g>
      </g>
      <g class="cls-12">
        <g class="cls-17">
          <path d="M511.59,408.36c-.46,0-.81-.23-.81-.58s-2.79-7.21-5.82-14.65c-6.16-15.46-14.53-36.74-15.46-40.46-.93-3.72-3.37-9.88-12.91-9.53-4.19.23-11.74-3.37-14.65-7.79-2.91-4.42-4.19-4.77-4.54-4.77s-.23,0-.46.46c-.23.47,1.28,7.33,7.33,11.51.26.27.34.57.23.93-.05.18-.16.32-.31.43-.15.1-.32.16-.51.15-.23,0-5.46-.12-15.58-6.86-.7-.58-2.56-1.74-3.72-1.4-.46.21-.78.56-.93,1.05-.46,1.16,6.74,6.16,17.09,11.04.11.04.22.1.31.18s.16.18.2.29c.05.11.06.23.06.35s-.04.23-.1.34c-.12.2-.29.33-.52.39-.22.07-.43.05-.65-.04-7.32-3.48-19.54-9.77-18.02-13.25.4-1,1.09-1.7,2.09-2.09,1.97-.58,4.18.93,5.11,1.63,3.51,2.45,7.27,4.43,11.28,5.93-4.42-4.3-6.28-9.3-4.88-11.51.18-.39.45-.69.8-.93.36-.23.75-.35,1.17-.35,1.63,0,3.49,1.74,6.05,5.58,2.56,3.83,9.19,6.97,12.91,6.97h.23c7.44-.23,12.91,3.72,14.65,10.81.81,3.72,9.54,25.69,15.35,40.23,3.6,8.95,5.58,14.07,5.81,14.88.08.22.06.44-.06.65-.12.21-.29.34-.52.4h-.23Z"/>
        </g>
      </g>
      <g class="cls-20">
        <g class="cls-18">
          <path d="M494.03,426.15c-.23,0-.46,0-.58-.23-2.14-2.58-3.66-5.48-4.53-8.72l-1.98-7.91c-3.14-13.25-11.63-48.24-14.42-49.99-5.28-1.23-10.4-2.93-15.35-5.11-4.07-1.74-15.35-7.68-16.05-11.28-.23-.92-.08-1.78.46-2.56.85-.8,1.86-1.18,3.02-1.16.23.03.43.14.59.31.15.18.23.38.23.62-.03.21-.11.4-.27.55s-.34.24-.55.27c-.34.11-1.28.11-1.63.58-.35.47-.35.35-.11,1.05.23.7,8.6,7.21,15,10.11,4.91,2.03,9.95,3.66,15.11,4.89,2.56.7,6.63,14.07,15.7,51.27.93,3.95,1.51,6.74,1.86,7.91s1.51,5.23,4.19,8.02c.15.18.21.38.19.61s-.13.41-.31.56c-.11.23-.34.23-.58.23Z"/>
        </g>
      </g>
      <g class="cls-16">
        <g class="cls-19">
          <path d="M486.94,380.69c-2.4,0-4.73-.43-6.98-1.28-.22-.13-.37-.32-.44-.57-.07-.25-.04-.49.09-.71.13-.19.3-.32.52-.39.22-.07.43-.05.65.04.11.11,7.56,3.72,18.02-2.09.2-.1.41-.14.63-.09.22.05.4.16.54.33.14.22.17.46.09.71-.07.25-.21.44-.44.56-3.91,2.29-8.14,3.46-12.67,3.49Z"/>
        </g>
      </g>
      <g class="cls-13">
        <g class="cls-14">
          <path d="M597.4,426.15c-.36,0-.63-.15-.81-.46-1.86-3.72-5.46-29.88-5.58-30.93-.04-.24.02-.46.15-.66.14-.2.32-.33.55-.39.24.02.46.09.65.24.19.15.32.34.4.57.93,7.44,3.95,27.44,5.47,30.34.06.1.09.22.09.34.01.12-.01.24-.06.35-.04.11-.11.21-.2.29-.09.08-.19.15-.31.18l-.35.11Z"/>
        </g>
      </g>
      <path d="M395.89,405.8h-.35c-.11-.04-.22-.1-.31-.18s-.15-.18-.2-.29c-.05-.11-.06-.23-.06-.35s.04-.23.1-.34l43.49-138.7c.36-1.15.89-2.21,1.59-3.2.7-.98,1.54-1.82,2.52-2.54.97-.71,2.03-1.25,3.18-1.63,1.15-.37,2.32-.55,3.53-.55h253.26c1.48,0,2.76.5,3.84,1.51.56.51,1.04,1.09,1.43,1.73.39.65.68,1.34.87,2.08.18.73.26,1.48.22,2.23-.03.76-.18,1.49-.43,2.21l-42.44,132.77c-.2.61-.49,1.18-.87,1.7s-.83.97-1.35,1.34c-.52.38-1.09.66-1.7.86-.61.19-1.24.29-1.89.28l-263.48.23-.23.34c-.11.33-.35.49-.7.47ZM449.38,259.78c-1.03,0-2.03.16-2.99.48-.97.32-1.88.79-2.7,1.39-.82.6-1.54,1.33-2.13,2.16-.6.83-1.05,1.74-1.36,2.71l-42.91,136.73,263.02-.23c.46,0,.92-.07,1.36-.21.44-.15.85-.35,1.22-.63.38-.27.7-.59.97-.96.28-.38.48-.78.63-1.22l42.44-132.78c.18-.55.28-1.13.3-1.71s-.04-1.16-.19-1.72-.36-1.1-.66-1.6-.66-.95-1.08-1.35c-.76-.69-1.65-1.04-2.67-1.05h-253.26Z"/>
      <path class="cls-80" d="M408.8,423.48s8.03-12.91,9.07-18.26,4.3-19.53,7.21-22.79,4.3-4.77,6.05-3.02c1.74,1.74-.82,9.65-.82,9.65,0,0-1.28,8.72.47,9.07,1.74.35,15-14.53,16.51-18.71,1.51-4.19,4.07-9.19,5.93-8.84,1.86.35,3.48.11,2.79,4.3,0,0-.23-5.11,2.56-5.93,2.79-.82,4.18,1.51,3.37,5.46,0,0,3.49-1.98,3.37,2.56-.11,4.53-3.95,12.44-3.95,12.44,0,0,2.68,1.05,1.63,6.63-1.05,5.58-10.35,23.71-25.46,30.23l-5.58,8.14s-11.16-12.32-23.14-10.93Z"/>
      <path class="cls-75" d="M854.61,164.44l-33.83,106.38h-88.26l37.67-118.7h72.09"/>
      <g class="cls-55">
        <path d="M820.78,271.75h-88.26c-.3.01-.53-.1-.7-.35-.24-.24-.28-.52-.12-.81l37.56-118.71c.07-.19.2-.33.37-.44.17-.11.35-.16.56-.14h72.09c.23,0,.44.07.62.23s.28.35.31.58c0,.26-.09.48-.28.66-.18.18-.4.28-.66.28h-71.51l-37.09,116.96h86.51l33.6-105.8c.06-.23.19-.41.4-.52s.43-.14.65-.06c.46.23.81.7.58,1.16l-33.84,106.38c-.05.18-.16.32-.31.43s-.32.16-.51.15Z"/>
      </g>
      <path class="cls-78" d="M854.73,164.44h-16.28l3.95-12.32,12.33,12.32Z"/>
      <g class="cls-28">
        <path d="M854.73,165.37h-16.28c-.3.01-.53-.1-.7-.35-.15-.26-.19-.53-.11-.81l3.95-12.33c0-.23.23-.46.58-.58.3-.03.57.05.81.23l12.32,12.33c.14.11.22.26.24.44.02.18-.02.34-.12.48-.03.17-.11.31-.24.42-.13.11-.28.16-.45.16ZM839.61,163.63h12.91l-9.77-9.88-3.14,9.88Z"/>
      </g>
      <g class="cls-29">
        <path class="cls-75" d="M301.82,855.39c0,5.81-23.6,8.26-55.35,8.26s-59.77-2.44-59.77-8.26,28.03-12.67,59.77-12.67,55.35,6.86,55.35,12.67Z"/>
      </g>
      <g class="cls-31">
        <path d="M246.47,864.57c-22.68,0-60.7-1.16-60.7-9.18s29.53-13.6,60.7-13.6,56.16,6.4,56.16,13.6-18.84,9.18-56.16,9.18ZM246.47,843.53c-34.65,0-58.95,7.67-58.95,11.86s18.48,7.44,58.95,7.44c51.86,0,54.42-6.17,54.42-7.44,0-4.65-21.74-11.86-54.42-11.86Z"/>
      </g>
      <path class="cls-75" d="M239.73,668.32h11.05v176.37c0,.68-.13,1.33-.39,1.96s-.63,1.18-1.11,1.66-1.03.85-1.66,1.11c-.63.26-1.28.39-1.96.39h-.81c-.68,0-1.33-.13-1.96-.39-.63-.26-1.18-.63-1.66-1.11-.48-.48-.85-1.04-1.11-1.66-.26-.63-.39-1.28-.39-1.96v-176.37Z"/>
      <path d="M245.66,850.74h-.81c-.4,0-.79-.04-1.17-.11s-.76-.19-1.13-.35c-.36-.15-.71-.34-1.03-.56-.33-.22-.63-.47-.91-.75s-.52-.59-.73-.92c-.22-.33-.4-.68-.54-1.04-.15-.37-.26-.74-.32-1.14-.07-.39-.1-.78-.09-1.17v-176.37c0-.22.08-.42.23-.58.16-.16.35-.23.58-.23h11.05c.23,0,.44.07.62.23s.28.35.31.58v176.37c0,.4-.04.79-.11,1.18-.08.39-.19.77-.34,1.13-.15.37-.34.72-.56,1.05-.22.33-.47.64-.76.92s-.58.53-.92.75c-.33.22-.68.41-1.04.56-.37.15-.74.27-1.14.34s-.78.11-1.18.11ZM240.66,669.26v175.44c0,.56.11,1.1.32,1.62.21.52.51.98.9,1.38.39.41.84.72,1.36.94.51.22,1.05.34,1.61.36h.81c.57-.02,1.11-.14,1.63-.35.52-.22.98-.54,1.38-.94s.71-.86.94-1.38.34-1.06.35-1.63v-175.44h-9.3Z"/>
      <path d="M214.73,845.51s18.49,2.56,27.21,3.95c0,0-2.79-1.39-2.09-6.51,0,0-24.65,2.33-25.11,2.56Z"/>
      <path d="M239.61,667.74v11.86s2.09-5.7,11.52-6.28v-5.23s-11.52-.58-11.52-.35Z"/>
      <path class="cls-77" d="M186.7,649.96h167.33c.59,0,1.17.06,1.74.17.58.11,1.14.28,1.68.51.54.22,1.06.5,1.55.82s.94.69,1.35,1.11c.42.41.79.86,1.11,1.34.33.49.6,1,.83,1.54s.4,1.09.51,1.67.17,1.16.17,1.74-.06,1.16-.17,1.73-.29,1.13-.51,1.67c-.22.54-.5,1.05-.83,1.54s-.7.94-1.11,1.35c-.41.41-.86.78-1.35,1.11-.49.32-1.01.6-1.55.82-.55.22-1.1.39-1.68.51-.57.11-1.16.17-1.74.17h-167.33c-.59,0-1.17-.06-1.74-.17s-1.14-.29-1.68-.51c-.54-.22-1.06-.5-1.55-.82-.49-.33-.94-.7-1.35-1.11s-.79-.86-1.11-1.35-.6-1-.83-1.54c-.22-.54-.4-1.1-.51-1.67s-.17-1.15-.17-1.73.06-1.17.17-1.74.29-1.13.51-1.67.5-1.05.83-1.54c.33-.48.7-.93,1.11-1.35.42-.41.86-.78,1.35-1.1s1.01-.6,1.55-.82c.55-.22,1.1-.39,1.68-.51s1.16-.17,1.74-.17Z"/>
      <path d="M354.03,668.67h-171.4c-5.7,0-5.7-5-5.7-9.77s0-9.77,5.7-9.77h171.4c.64,0,1.28.06,1.91.19.63.13,1.24.31,1.83.55.59.25,1.15.55,1.69.91.53.35,1.03.76,1.48,1.21s.86.95,1.21,1.48c.36.53.66,1.1.9,1.69.25.59.43,1.2.56,1.83s.19,1.27.19,1.91-.06,1.28-.19,1.91c-.13.63-.31,1.24-.56,1.83-.24.59-.54,1.16-.9,1.69-.35.53-.76,1.03-1.21,1.48s-.95.86-1.48,1.21c-.54.35-1.1.66-1.69.9-.59.24-1.21.43-1.83.56-.63.13-1.27.19-1.91.19ZM182.63,650.89c-3.84,0-3.95,2.67-3.95,8.02s.11,8.02,3.95,8.02h171.4c.53,0,1.05-.05,1.56-.16.52-.1,1.02-.25,1.51-.45.49-.2.95-.45,1.39-.74.44-.3.84-.63,1.21-1s.71-.78,1-1.21c.29-.44.54-.9.74-1.39.2-.48.35-.98.46-1.51.1-.52.15-1.04.15-1.56s-.05-1.05-.15-1.57c-.1-.52-.26-1.02-.46-1.51-.2-.48-.45-.95-.74-1.39s-.63-.84-1-1.21c-.37-.38-.78-.71-1.21-1s-.9-.54-1.39-.74c-.48-.2-.98-.35-1.51-.46-.52-.1-1.04-.15-1.56-.15h-171.4Z"/>
      <path class="cls-75" d="M412.17,815.16s-3.84.93-3.14,6.63c.7,5.69.93,2.79,1.51,9.77.58,6.97-4.07,13.48.35,19.18s17.33,5.7,33.84,3.95,30.81-1.63,46.97-5.23c16.17-3.6,28.95-11.85,28.6-21.51s-8.26-10.23-20.23-8.14c-11.98,2.09-34.54-4.42-41.16-7.32-6.63-2.91-12.33-6.4-16.63-.23s-2.33,6.74-9.77,9.19c-7.44,2.44-16.98-.23-17.21-2.09-.23-1.86-1.51-5.58-3.14-4.19Z"/>
      <path d="M428.68,856.55c-8.38,0-15.35-1.16-18.49-5.23-3.14-4.07-2.09-8.26-1.28-12.33.58-2.41.81-4.85.69-7.32,0-1.81-.24-3.59-.69-5.35-.41-1.44-.64-2.92-.7-4.42-.7-5.58,2.67-7.21,3.6-7.44.51-.46,1.09-.57,1.74-.35,1.74.7,2.44,3.84,2.56,5.12.11,1.28,9.07,3.83,16.16,1.39,5.11-1.63,5.46-2.32,6.86-4.88s1.28-2.21,2.44-3.95c4.3-6.05,9.77-3.6,15.7-.93l1.98.93c7.09,3.02,29.42,9.07,40.69,7.09,9.42-1.63,14.77-1.17,17.91,1.39,3.14,2.56,3.14,4.19,3.26,7.68.46,9.42-11.05,18.25-29.19,22.32-11.16,2.56-21.4,3.26-32.21,4.07-4.77.35-9.77.7-15,1.28-5.33.58-10.68.89-16.05.93ZM412.4,816.1c-.11,0-3.02.81-2.56,5.7.35,2.56.58,3.26.7,4.07s.58,1.74.81,5.58c.15,2.68-.13,5.32-.81,7.91-.81,4.07-1.51,7.68,1.05,10.93,4.54,5.69,18.49,5.11,33.02,3.6,5.12-.58,10.12-.93,15-1.28,10.7-.81,20.93-1.51,31.98-4.07,16.98-3.84,28.14-12.09,27.79-20.46-.12-3.02-.93-5.11-2.56-6.4-1.63-1.28-7.91-2.56-16.52-1.05-12.21,2.21-35.11-4.42-41.74-7.32l-1.98-.93c-6.28-2.79-10.35-4.3-13.6.46l-2.33,3.72c-1.63,3.03-2.32,3.95-7.91,5.7-5.58,1.74-14.07.7-16.97-1.16-.75-.36-1.21-.94-1.4-1.74-.1-1.34-.57-2.54-1.4-3.6h-.23l-.35.35Z"/>
      <path d="M443.33,846.44c-13.95,0-24.54-1.51-27.68-2.56-.46-.11-.81-.23-.81-.35-.18-.31-.18-.62,0-.93.25-.28.56-.43.93-.46l.46.23c1.98.58,13.84,2.79,31.98,2.32,20.93-.58,63.83-13.37,64.18-13.48.24-.08.47-.06.7.05.22.11.38.29.46.53.07.23.05.44-.06.65s-.29.34-.52.4c-.46.23-43.49,13.02-64.65,13.6h-5Z"/>
      <path class="cls-76" d="M527.87,752.85s1.97-4.42,8.83-3.48c3.51.58,7.04.97,10.58,1.16,7.42-2.56,14.63-5.63,21.63-9.19,8.83-4.77,19.88-2.32,22.91,6.28,3.02,8.6.35,16.16-10.82,23.72-11.16,7.56-25.7,22.55-28.6,25.58-2.91,3.02-17.79,12.21-30.23,14.07-12.44,1.86-16.86-1.63-17.79-3.49-.93-1.86-9.07-27.32-8.84-29.07.23-1.74.58-5.11,4.89-5.11s11.86.93,24.88-7.21c0,0,8.84-3.83,2.56-13.26Z"/>
      <path class="cls-75" d="M539.14,749.59c3.95,1.05,1.74,2.91,16.05-1.86s17.33-11.28,26.86-8.48c9.54,2.79,12.91,13.14,9.42,21.85-3.49,8.72-17.79,14.07-26.17,22.79-8.37,8.72-11.74,13.6-27.32,21.63-15.58,8.02-30.11,8.14-32.56,3.37s-8.95-28.25-9.89-30.46c-.93-2.21.81-5.58,8.38-4.99,7.56.58,21.74-5.82,25.69-11.63,3.96-5.81-4.77-8.72.35-11.63,5.12-2.91,5.82-1.63,9.19-.58Z"/>
      <path d="M514.14,812.96c-4.77,0-8.26-1.28-9.54-3.72-1.28-2.44-5.11-14.65-7.56-22.91l-2.32-7.56c-.25-.61-.34-1.26-.26-1.92.08-.67.32-1.27.72-1.8.81-1.16,3.03-3.02,8.84-2.56s21.16-5.7,24.77-11.16c1.74-2.44.7-4.19-.23-6.05-.93-1.86-2.33-4.07,1.04-5.93,3.38-1.86,6.28-1.63,9.77-.7.69.19,1.35.46,1.97.81,1.63.7,2.44,1.05,13.49-2.56,4.21-1.5,8.28-3.32,12.21-5.46,5.12-2.91,8.95-4.89,15.23-3.03,2.19.57,4.17,1.57,5.93,2.98,1.77,1.42,3.16,3.14,4.18,5.16,1,2.36,1.49,4.83,1.47,7.4-.02,2.57-.55,5.02-1.58,7.37-1.86,4.65-7.68,8.83-13.95,13.26-4.42,3.14-8.95,6.28-12.44,9.88-1.28,1.28-2.56,2.56-3.6,3.84-6.16,6.51-10.58,11.16-23.84,17.9-8.6,4.42-17.56,6.74-24.3,6.74ZM502.29,774.24c-2.79,0-4.77.58-5.7,1.74-.23.3-.38.64-.42,1.01-.04.38.02.74.18,1.08.35.82,1.17,3.72,2.33,7.68,2.32,7.79,5.81,19.65,7.44,22.79,1.63,3.14,15.58,4.3,31.51-3.84,13.02-6.63,17.32-11.28,23.37-17.67l3.6-3.83c3.96-3.68,8.18-7.01,12.68-10,6.05-4.3,11.74-8.37,13.37-12.44.98-2.14,1.48-4.38,1.5-6.73s-.44-4.6-1.38-6.76c-.93-1.76-2.17-3.26-3.72-4.49-1.56-1.23-3.3-2.1-5.23-2.6-5.58-1.74-8.72,0-13.95,2.79-3.99,2.2-8.14,4.06-12.44,5.58-11.28,3.72-12.56,3.48-14.77,2.44-.55-.28-1.13-.47-1.74-.58-3.49-.93-5.47-1.28-8.49.46-3.03,1.74-1.51,1.51-.35,3.49,1.16,1.97,2.44,4.65.23,8.02-4.07,6.05-18.37,12.44-26.39,11.86h-1.63Z"/>
      <path d="M504.61,800.17c-1.28.08-2.41-.31-3.37-1.17-.09-.07-.16-.16-.21-.27-.04-.11-.06-.22-.05-.34.01-.12.05-.22.11-.32s.15-.17.26-.23c.16-.16.35-.24.58-.24s.42.08.58.24c.86.51,1.8.7,2.79.58h.23c1.05-.1,1.98-.49,2.79-1.16,7.09-6.28,14.19-5.23,20.35-4.3,3.37.46,6.63,1.05,9.3.11,8.49-2.56,11.74-5.93,16.05-10.11,2.83-3.06,5.93-5.81,9.3-8.26,22.32-16.28,21.74-23.25,21.74-23.37-.04-.11-.05-.22-.03-.34.02-.11.06-.22.13-.31.07-.09.16-.17.27-.21.1-.05.21-.07.33-.06.22-.08.44-.06.65.06.21.12.34.29.4.52.11.82.81,8.26-22.44,25.11-3.28,2.43-6.33,5.1-9.19,8.02-4.19,4.3-7.79,7.91-16.63,10.7-3.14.93-6.52.46-10.12-.11-6.16-.93-12.44-1.86-18.95,3.83-1.11,1.03-2.43,1.57-3.95,1.63h-.93Z"/>
      <path d="M497.98,774.82c-.2,0-.39-.06-.54-.19-.16-.14-.25-.3-.28-.51-.23-.69-2.68-6.04-4.89-10.81-.06-.1-.09-.22-.1-.34,0-.12.02-.24.06-.35.05-.11.11-.21.2-.29s.19-.15.3-.18c.22-.08.45-.08.67.01s.39.24.49.46c3.26,6.97,4.88,10.69,5,11.28,0,.23-.08.44-.23.62-.15.18-.35.28-.58.31h-.11Z"/>
      <path d="M292.52,316.16h-.58c-.19-.16-.29-.37-.31-.61-.03-.25.04-.47.2-.66.86-1.01,1.91-1.76,3.15-2.23s2.52-.63,3.83-.45c.23.03.43.14.58.31s.23.38.23.62c-.03.23-.13.43-.31.58s-.39.23-.62.23c-1.02-.16-2.02-.06-2.98.29-.97.35-1.8.92-2.48,1.69l-.7.23Z"/>
      <path d="M298.79,324.16c.04.26.06.51.06.76,0,.24-.03.47-.07.66-.04.19-.11.35-.19.46s-.18.18-.28.2c-.11.02-.22-.02-.33-.1s-.22-.21-.33-.38-.2-.38-.28-.6c-.08-.23-.14-.48-.18-.74-.04-.26-.06-.51-.06-.76,0-.24.03-.47.07-.66s.11-.35.19-.46.18-.18.29-.2c.1-.02.21.02.33.1s.22.21.33.38c.11.17.2.38.28.6.08.23.14.48.18.74Z"/>
      <path d="M298.22,327.09c-.93,0-1.74-1.04-1.98-2.56-.23-1.51.23-2.91,1.28-3.14.32-.01.62.07.89.24.28.17.48.4.62.69.27.52.46,1.06.58,1.63.12.58.12,1.16,0,1.74-.02.35-.15.66-.39.92s-.54.42-.89.47h-.11Z"/>
      <path d="M250.89,456.73c-7.32,0-22.91-2.67-47.44-9.42-3.02-.81-3.84-6.05-2.32-15.93.58-3.95,1.51-7.79,2.09-10.46-8.38,9.88-9.65,16.97-9.65,23.14-.03.28-.14.51-.35.7h-.7l-10.23-2.21c-.21-.06-.38-.17-.51-.34-.13-.18-.19-.37-.19-.59,0-.23,2.21-23.14,23.14-41.62,23.02-20.35,17.67-42.9,13.49-60.92-1.03-3.95-1.84-7.94-2.44-11.98-1.4-11.97,1.74-33.83,11.4-43.83,14.77-15.58,32.44-20.93,52.56-15.93,11.74,2.79,29.65,14.77,31.28,31.27.58,6.28,0,10.58-5,19.3-.1.22-.27.36-.5.43-.23.07-.45.04-.66-.08-.22-.1-.36-.27-.43-.51-.07-.23-.04-.45.08-.66,4.77-8.37,5.23-12.44,4.77-18.37-1.63-17.09-21.28-27.56-29.89-29.77-19.54-4.77-36.63.47-51.05,15.46-9.19,9.65-12.21,30.93-10.81,42.44.46,3.48,1.4,7.56,2.32,11.74,4.19,17.56,9.77,41.63-13.95,62.67-2.93,2.55-5.62,5.32-8.08,8.32-2.45,3.01-4.64,6.2-6.55,9.57s-3.53,6.89-4.84,10.54-2.3,7.39-2.98,11.21l8.38,1.86c.23-6.74,2.09-14.65,12.44-25.69.29-.32.64-.4,1.04-.23.39.25.54.6.47,1.05-3.49,12.91-5.12,26.74-1.86,27.56,36.04,9.88,48.14,9.77,50.11,9.18-8.38-23.48,3.26-41.39,8.84-50.11,10.46-16.16,14.18-28.02,13.14-40.92s-1.16-19.3-.46-20.35c.1-.22.27-.36.51-.43.23-.07.45-.04.66.08.22.1.36.27.44.51.07.23.04.45-.09.66,0,.23-.7,3.02.7,19.41,1.4,16.4-6.05,30.46-13.37,41.97-5.58,8.48-16.86,26.16-8.6,48.95.17.47.09.9-.23,1.28-.58.7-2.09,1.05-4.65,1.05Z"/>
      <path d="M392.05,455.1l-.58-.23c-4.3-3.14-11.4-11.16-19.54-20.58-14.19-16.16-31.86-36.39-45.93-43.71-7.09-3.72-13.72-2.56-19.53-1.52-2.61.54-5.24.82-7.91.82-12.44-.47-13.14-7.56-13.26-7.91-.11-.35-1.51-10,1.17-13.84,1.45-2.02,3.35-3.45,5.7-4.3.85-.35,1.74-.54,2.67-.58,8.84-.35,14.77-1.51,14.54-6.4-.24-4.36,0-8.71.7-13.02v-.46c.29-1.59.86-3.06,1.74-4.42.7-1.4,1.51-2.79,1.28-4.07-.23-1.28-.93-1.63-2.56-2.67-1.93-1.08-3.6-2.47-5-4.19-2.21-2.79-1.97-5.11-1.74-7.79.35-1.94.35-3.88,0-5.81-.81-4.88-3.14-13.25-5.58-14.42-.29-.22-.61-.34-.97-.36-.36-.02-.7.06-1.01.25-2.09,1.05-3.84,5-4.65,10.11s-5.23,15.81-9.54,17.09c-.56.13-1.11.1-1.66-.09-.54-.19-.99-.51-1.36-.95-.12-.19-.17-.39-.15-.6.02-.22.11-.41.26-.56.09-.09.19-.16.31-.2.11-.04.23-.06.36-.05.13.01.24.05.35.11.11.06.2.15.27.26.14.17.31.3.53.36s.42.06.64-.01c2.91-.82,7.56-10.81,8.37-15.7.82-4.88,2.91-10,5.47-11.28.56-.29,1.17-.44,1.8-.44s1.23.15,1.8.44c3.95,2.09,6.28,14.3,6.51,15.69.35,2.14.35,4.27,0,6.4-.23,2.44-.35,4.19,1.4,6.51,1.26,1.58,2.77,2.86,4.54,3.84,1.74,1.05,3.14,1.97,3.37,3.83.23,1.86-.7,3.49-1.51,5.12-.74,1.19-1.29,2.47-1.63,3.83v.47c-.64,4.2-.87,8.42-.7,12.67.23,7.67-10.46,8.02-16.16,8.26-.77,0-1.51.15-2.21.46-1.96.7-3.56,1.91-4.77,3.6-1.98,2.79-1.28,10.11-.93,12.67.11.35.7,6.05,11.63,6.4,2.51-.01,4.99-.28,7.44-.81,6.17-1.05,13.03-2.33,20.7,1.63,14.3,7.56,32.09,27.9,46.4,44.18,8.14,9.3,15.12,17.32,19.3,20.34.18.14.28.32.33.54.04.22.01.42-.09.62-.11.23-.35.47-.58.47Z"/>
      <path d="M325.08,551.94c-2.99-.24-5.9-.86-8.72-1.86-1.79-.6-3.61-1.1-5.46-1.51-6.28-1.28-40.58-1.05-70.58-.46-8.02.11-12.44-1.05-13.48-3.84s1.28-5.23,1.86-6.05c7.67-29.07-1.63-83.71-1.74-84.29-.04-.24.03-.46.19-.65.17-.19.37-.28.62-.28.11-.04.22-.05.34-.03.11.02.22.06.32.13.09.07.16.16.21.27.05.1.07.21.06.33.11.58,9.54,55.8,1.63,85.22-.03.18-.11.33-.23.46-.7.58-2.33,2.68-1.63,4.19s2.56,3.02,11.74,2.79c14.65-.23,63.03-1.17,71.05.46l5.7,1.51c4.3,1.4,8.72,2.68,10.7,1.16,1.97-1.51,1.4-2.09,1.28-4.18-.31-2.4-.77-4.76-1.4-7.09-2.68-11.39-7.68-32.79-3.49-45.81,1.74-5.7,3.72-10.58,5.46-15,3.38-8.37,6.05-15.11,5-21.51-.04-.24.01-.46.15-.66.14-.2.32-.33.55-.39.25-.04.46.03.65.19.19.16.28.37.28.62,1.16,6.86-1.52,13.72-5,22.44-1.74,4.3-3.72,9.19-5.47,14.77-3.95,12.67.93,33.72,3.49,44.99.72,2.44,1.22,4.92,1.51,7.44.12,2.67-.58,4.53-1.97,5.58-1.09.74-2.29,1.09-3.6,1.05Z"/>
      <path d="M272.29,402.9c-2.15,0-4.28-.19-6.4-.58-.23-.1-.41-.26-.54-.47-.13-.21-.18-.44-.16-.69.08-.24.24-.42.46-.53.22-.11.46-.14.7-.06,3.75.77,7.51.84,11.28.23,6.4-.93,16.4-3.84,27.56-12.79.19-.15.42-.22.66-.2.25.03.45.13.62.32.12.18.17.38.15.6s-.11.41-.27.56c-14.42,11.51-26.86,13.6-34.07,13.6Z"/>
      <path d="M326.24,445.91c0,.46,8.72,18.83,8.72,18.83,0,0,2.44-5.35.12-9.18l-8.84-9.65Z"/>
      <path d="M254.73,547.41c.46-.35-15.93.58-22.33-.7l-1.63,5.11s21.4-2.56,23.95-4.42Z"/>
      <path class="cls-75" d="M489.38,135.49h62.32c7.56,0,11.63,6.05,9.19,13.6l-10.7,33.36c-2.44,7.56-10.46,13.6-18.02,13.6h-14.65l-5.12,15.46c-.46,1.63-2.67,2.44-3.48,1.28l-12.56-16.85h-26.51c-7.56,0-11.63-6.05-9.19-13.49l10.7-33.36c2.44-7.44,10.47-13.6,18.03-13.6Z"/>
      <g class="cls-30">
        <path d="M509.96,214.09c-.72.03-1.3-.24-1.74-.81l-12.33-16.51-26.05.23c-.85.04-1.7-.02-2.53-.19-.84-.17-1.64-.43-2.41-.8s-1.48-.82-2.15-1.36c-.66-.54-1.24-1.16-1.75-1.84-2.09-2.79-2.44-6.51-1.16-10.58l10.7-33.37c2.56-7.79,10.93-14.18,18.84-14.18h62.32c3.84,0,6.98,1.4,8.84,4.07s2.44,6.51,1.16,10.58l-10.7,33.48c-2.56,7.79-10.93,14.07-18.83,14.07h-14.07l-4.77,14.89c-.23.63-.61,1.17-1.13,1.6-.52.43-1.11.71-1.78.83l-.47-.11ZM496.35,195.02c.31-.04.55.08.7.35l12.56,16.86h.58c.67-.15,1.13-.54,1.4-1.16l5.11-15.46c.03-.2.13-.37.28-.51.16-.13.33-.2.54-.19h14.65c7.21,0,14.88-5.81,17.21-12.91l10.7-33.48c1.05-3.37.81-6.63-.93-8.95-.89-1.14-1.98-2.01-3.3-2.61s-2.7-.85-4.14-.76h-62.32c-7.21,0-14.89,5.81-17.21,12.91l-10.7,33.71c-.6,1.49-.82,3.05-.66,4.65.17,1.6.7,3.08,1.59,4.42.9,1.13,2.01,1.99,3.32,2.59,1.31.59,2.69.85,4.13.79l26.51-.23Z"/>
      </g>
      <path class="cls-81" d="M494.61,165.49c0,.48-.09.94-.27,1.38s-.44.83-.78,1.17c-.34.33-.73.59-1.17.78-.44.18-.9.27-1.38.27s-.94-.09-1.38-.27c-.44-.19-.83-.45-1.17-.78-.34-.34-.6-.73-.78-1.17s-.28-.9-.28-1.38.09-.94.28-1.38c.18-.44.44-.83.78-1.17s.73-.6,1.17-.78c.44-.18.9-.28,1.38-.28s.94.09,1.38.28.83.44,1.17.78.6.73.78,1.17c.18.44.27.9.27,1.38Z"/>
      <path d="M491,169.9c-.59,0-1.16-.11-1.71-.33-.55-.22-1.03-.54-1.46-.95-.42-.41-.75-.89-.99-1.43-.23-.55-.36-1.11-.38-1.7.02-.59.14-1.17.38-1.72.23-.55.56-1.03.98-1.45s.91-.75,1.46-.98c.55-.24,1.12-.36,1.71-.38.59.02,1.16.14,1.7.38.54.24,1.02.57,1.43.99.41.43.73.91.95,1.46.22.55.33,1.12.33,1.71s-.11,1.15-.34,1.69-.54,1.02-.96,1.43c-.41.42-.89.73-1.43.96s-1.1.33-1.69.33ZM491,162.69c-.37,0-.72.07-1.07.21-.34.14-.64.34-.9.6s-.46.57-.61.91c-.14.34-.21.7-.21,1.07s.07.72.21,1.05c.14.33.34.63.61.88.26.26.56.44.91.57s.69.19,1.06.17c.35,0,.7-.07,1.03-.2.33-.14.61-.33.86-.58.26-.25.45-.54.58-.86s.2-.67.2-1.03c.02-.36-.04-.72-.17-1.06-.13-.34-.32-.65-.57-.91-.26-.27-.55-.47-.89-.61-.33-.15-.69-.22-1.05-.22Z"/>
      <path class="cls-81" d="M512.05,165.49c0,.48-.09.94-.27,1.38s-.44.83-.78,1.17c-.34.33-.73.59-1.17.78-.44.18-.9.27-1.38.27s-.94-.09-1.38-.27c-.44-.19-.83-.45-1.17-.78-.34-.34-.6-.73-.78-1.17s-.28-.9-.28-1.38.09-.94.28-1.38c.18-.44.44-.83.78-1.17s.73-.6,1.17-.78c.44-.18.9-.28,1.38-.28s.94.09,1.38.28.83.44,1.17.78.6.73.78,1.17c.18.44.27.9.27,1.38Z"/>
      <path d="M508.45,169.9c-.59.02-1.17-.08-1.72-.3-.56-.21-1.05-.53-1.47-.95s-.76-.9-.99-1.45c-.23-.55-.35-1.12-.34-1.72-.06-.32-.07-.65-.05-.98.02-.33.07-.65.16-.96.09-.32.21-.62.36-.91.16-.29.34-.56.55-.81s.45-.47.71-.67c.26-.2.54-.37.84-.51.3-.14.61-.24.93-.31.32-.07.65-.1.97-.1s.65.03.97.1.63.17.93.31c.3.14.58.31.84.51.27.2.5.42.71.67s.4.52.55.81c.15.29.28.59.36.91s.14.64.16.96c.02.33,0,.66-.05.98,0,.59-.11,1.15-.34,1.69s-.54,1.02-.96,1.43c-.41.42-.89.73-1.43.96s-1.1.33-1.69.33ZM508.45,162.69c-.37,0-.72.07-1.07.21-.34.14-.64.34-.91.6-.26.27-.46.57-.6.91-.14.34-.21.7-.21,1.07s.07.72.22,1.05c.14.33.34.63.61.88.26.26.56.44.91.57.34.13.69.19,1.06.17.35,0,.7-.07,1.03-.2.33-.14.61-.33.86-.58s.45-.54.58-.86.2-.67.2-1.03c.02-.36-.04-.72-.17-1.06-.13-.34-.32-.65-.57-.91-.25-.27-.55-.47-.88-.61-.33-.15-.69-.22-1.05-.22Z"/>
      <path class="cls-81" d="M529.38,165.49c0,.48-.09.94-.28,1.38s-.44.83-.78,1.17c-.34.33-.73.59-1.17.78-.44.18-.9.27-1.38.27s-.94-.09-1.38-.27c-.44-.19-.83-.45-1.17-.78-.34-.34-.6-.73-.78-1.17s-.27-.9-.27-1.38.09-.94.27-1.38c.18-.44.44-.83.78-1.17s.73-.6,1.17-.78.9-.28,1.38-.28.94.09,1.38.28c.44.18.83.44,1.17.78s.6.73.78,1.17c.18.44.28.9.28,1.38Z"/>
      <path d="M525.78,169.9c-.59,0-1.15-.11-1.69-.33s-1.02-.54-1.43-.96c-.42-.42-.73-.89-.96-1.43s-.34-1.1-.34-1.69c-.05-.32-.07-.65-.05-.98.02-.33.07-.65.16-.96s.21-.62.36-.91c.16-.29.34-.56.55-.81s.45-.47.71-.67c.26-.2.54-.37.84-.51.3-.14.6-.24.93-.31s.65-.1.97-.1.65.03.97.1c.32.07.63.17.93.31.3.14.58.31.84.51s.5.42.71.67.4.52.55.81c.15.29.28.59.36.91.09.32.15.64.16.96.02.33,0,.66-.05.98,0,.6-.11,1.17-.34,1.72-.23.55-.56,1.03-.99,1.45s-.92.73-1.47.95c-.55.22-1.13.32-1.72.3ZM525.78,162.69c-.36,0-.72.07-1.05.22-.34.14-.63.34-.88.61-.26.26-.45.56-.57.91-.13.34-.19.69-.17,1.06,0,.35.07.7.2,1.03s.33.61.58.86.54.44.86.58c.33.14.67.2,1.03.2.36.02.72-.04,1.06-.17.34-.13.65-.32.91-.57.27-.25.47-.55.61-.88.15-.33.22-.69.22-1.05s-.07-.72-.21-1.07c-.14-.34-.34-.64-.6-.91-.27-.26-.57-.46-.91-.6-.34-.14-.7-.21-1.07-.21Z"/>
      <path d="M490.66,763.31c-1.72.04-3.43-.12-5.11-.46-6.63-1.51-35.81-50.22-62.56-95.8l-10.46-17.55c-4.54-7.21-4.77-9.77-5-11.51-.23-1.74-.23-2.21-3.49-5.46-.74-.67-1.38-1.42-1.9-2.27s-.93-1.74-1.21-2.7c-.28-.95-.42-1.93-.42-2.92s.13-1.97.39-2.93c-15.81,6.16-77.67,26.04-112.67,27.79s-59.77-2.91-70.7-30.11c-5.47-13.6-1.74-31.39,2.32-43.83,2.71-8.32,6.13-16.34,10.23-24.07.11-.21.28-.35.51-.42.22-.07.44-.05.65.07.21.11.35.28.42.51.07.22.05.44-.07.65-.23.35-22.56,41.28-12.44,66.39,10.12,25.11,35.23,30.69,69.07,29.07,36.28-1.74,101.86-23.26,113.83-28.37.37-.15.68-.07.93.23.14.11.21.27.24.44.02.18-.02.34-.13.48-.11.23-3.02,5.58,2.21,10.7,5.23,5.11,3.72,4.65,3.96,6.51.23,1.86.46,3.95,4.77,10.81l10.46,17.56c16.4,28.02,55,93.59,61.51,94.98,9.77,2.33,28.14-3.6,37.91-10.46,3.72-2.44,5.81-4.88,6.04-6.74,1.98-13.37-74.77-165.21-92.21-182.65-7.44-7.44-14.77-10.35-27.21-10.93-30.35-1.28-99.42,14.77-132.67,22.44l-4.77,1.05c-.13.07-.27.1-.42.11-.15,0-.29-.03-.42-.09-.13-.06-.24-.15-.33-.27-.09-.12-.15-.25-.18-.39-.03-.15-.02-.29.02-.43.04-.14.11-.27.21-.38s.22-.19.35-.24c.14-.05.28-.07.43-.06l4.77-1.05c33.26-7.67,102.56-23.72,133.14-22.44,12.68.58,20.7,3.83,28.38,11.51s33.84,54.06,53.37,92.54c19.54,38.48,40.47,83.36,39.3,91.5-.35,2.44-2.56,5.11-6.74,8.02-8.72,5.93-23.72,11.16-34.3,11.16Z"/>
      <path d="M405.31,796.22c-.62.01-1.23-.07-1.83-.23s-1.16-.41-1.69-.74c-.53-.33-.99-.73-1.41-1.19-.41-.47-.74-.98-1.01-1.55-11.98-24.88-36.4-131.72-38.49-141.14l-72.67-1.86c-.25-.03-.46-.13-.63-.3-.18-.17-.28-.39-.3-.63.03-.23.13-.43.31-.58.18-.16.38-.23.62-.23l73.37,1.86c.2,0,.39.06.54.2.16.13.25.3.28.5.23,1.16,26.17,115.8,38.49,141.38.22.47.5.89.85,1.27s.75.69,1.2.94c.45.26.93.43,1.43.53.51.1,1.01.12,1.52.06,10-1.28,34.07-4.19,42.33-5.58,0,0,.23,0,.58-.46,5.35-8.37-12.32-81.85-19.53-109.52-.07-.22-.04-.44.07-.65.11-.2.29-.34.51-.4.22-.07.44-.04.65.07s.34.29.4.51c1.16,4.07,26.28,100.22,19.3,110.92-.39.68-.97,1.11-1.74,1.28-8.26,1.4-32.32,4.3-42.32,5.58h-.82Z"/>
      <path d="M326.12,559.15c-.36,0-.64-.15-.82-.46-2.67-5.35-2.32-7.21-2.21-7.67.04-.12.1-.22.18-.31s.18-.16.29-.2c.11-.05.23-.07.35-.06.12,0,.23.04.34.09.23.06.4.19.52.4.12.21.14.43.06.65-.11.12-.23,1.74,1.98,6.28.13.2.16.43.08.66-.07.23-.21.4-.43.51l-.35.11Z"/>
      <path class="cls-75" d="M410.08,795.63s4.53,17.32,5,21.86"/>
      <path d="M415.08,818.3c-.23,0-.44-.07-.62-.23s-.28-.35-.31-.58c-.35-4.3-4.88-21.4-5-21.63-.04-.24.01-.46.15-.66.14-.2.32-.33.55-.39.23-.07.44-.06.65.06.21.11.34.29.4.52.23.7,4.65,17.44,5,21.97.04.11.05.22.03.34-.02.12-.06.22-.13.32s-.16.16-.27.21c-.1.05-.21.07-.33.06h-.11Z"/>
      <path class="cls-75" d="M448.92,808.65c-1.4-2.32-4.31-18.14-3.84-18.14"/>
      <path d="M448.92,809.47c-.3.02-.53-.1-.7-.34-1.05-1.74-4.65-17.68-3.95-18.95.16-.34.43-.5.81-.46.22,0,.42.08.57.23s.24.35.24.58v.35c0,1.63,2.56,15.34,3.72,17.32.09.08.15.18.19.3.04.11.05.23.02.35-.02.12-.07.22-.15.32-.08.09-.17.16-.29.2l-.46.11Z"/>
      <path class="cls-75" d="M301.94,351.39c-1.38.36-2.77.38-4.15.02-1.39-.35-2.6-1.02-3.64-2,0,0-2.56-2.21,2.79-2.79,5.35-.58,7.56-.93,6.74,1.86s-1.74,2.91-1.74,2.91Z"/>
      <path d="M299.61,352.44c-1.15,0-2.25-.2-3.32-.62-1.06-.43-2.01-1.03-2.84-1.82-.31-.27-.54-.61-.66-1.01s-.14-.8-.04-1.2c.35-1.16,1.63-1.74,4.19-2.09s6.28-.7,7.33.46c.26.38.42.79.46,1.25s-.04.9-.23,1.31c-.93,2.91-1.97,3.38-2.44,3.49-.8.19-1.61.27-2.44.23ZM301.7,347.09l-4.65.35c-2.44.35-2.67.81-2.67.81.05.23.17.43.35.58.91.87,1.98,1.45,3.21,1.74s2.44.25,3.65-.12c.11,0,.7-.46,1.16-2.21.47-1.74.12-.93.12-.93,0,0-.58-.23-1.17-.23Z"/>
      <path d="M279.14,344.18c-1.97,0-5.11-.81-8.02-5.35-4.42-6.74-4.3-12.32.46-15.93s8.84,1.86,8.95,2.09c.16.16.24.35.24.58s-.08.42-.24.58-.35.24-.58.24-.42-.08-.58-.24c-.11,0-3.95-4.07-6.74-1.86-5,3.72-2.79,9.42,0,13.6,2.79,4.19,7.44,4.42,7.67,4.42.1-.06.2-.09.32-.1.11-.01.22.01.33.06s.19.11.27.2c.07.09.11.19.14.3.06.1.09.22.1.34,0,.13-.01.24-.06.35-.05.11-.11.21-.2.29s-.19.14-.31.18c-.57.17-1.15.24-1.74.23Z"/>
      <path d="M279.03,335.47h-.23c-.23-.06-.4-.19-.52-.4-.11-.21-.14-.43-.06-.65.22-.76.26-1.53.11-2.31-.14-.78-.45-1.48-.93-2.11-.19-.29-.44-.51-.76-.65-.32-.15-.65-.2-.99-.17-1.74,0-1.86,2.09-1.86,2.44,0,.22-.08.42-.24.58s-.35.23-.57.23c-.23,0-.44-.07-.62-.23s-.28-.35-.31-.58c0-1.51.7-4.19,3.49-4.19.63-.05,1.22.06,1.8.3.58.24,1.06.61,1.46,1.09.61.86,1,1.81,1.18,2.85.19,1.04.14,2.07-.14,3.08,0,.35-.46.7-.81.7Z"/>
      <path d="M280.19,338.95h-.23c-.98-.33-1.84-.87-2.57-1.61-.73-.73-1.27-1.59-1.61-2.57-.58-1.86-.35-3.14.46-3.95.39-.34.83-.55,1.33-.64.51-.08.99-.03,1.46.17.23.06.41.19.52.4.11.21.14.43.06.65-.1.22-.26.39-.48.49-.21.11-.44.14-.68.09-.37-.14-.72-.1-1.05.11-.11.12-.46.58,0,2.21.25.73.65,1.36,1.2,1.9.56.53,1.2.91,1.94,1.13.11.04.22.09.31.18s.16.18.2.29c.05.11.06.23.06.35,0,.12-.04.23-.1.34-.18.31-.45.47-.81.46Z"/>
      <path d="M294.96,364.06c-4.54-1.11-9-2.51-13.37-4.19-2.79-1.28,4.54,6.74,5.81,7.33,1.28.58,1.4-2.33,7.56-3.14Z"/>
      <path d="M385.89,494.74c-6.74,0-12.91-3.26-18.84-7.09-11.4-7.21-48.02-48.83-49.65-50.57-.15-.2-.22-.42-.2-.67.03-.24.13-.45.32-.61.17-.15.38-.21.6-.19s.41.13.56.3c.46.47,38.14,43.14,49.3,50.34s21.97,11.97,36.4-2.56c12.21-12.21,24.3-32.09,28.84-39.53.81-1.51,1.51-2.44,1.74-3.02.23-.58-.46-2.44-3.95-6.05-7.09-7.44-18.72-14.07-27.44-11.05-1.63.7-11.63,13.49-18.14,22.32-.17.19-.37.29-.62.32-.24.02-.46-.05-.66-.2-.18-.15-.28-.33-.3-.56-.03-.23.04-.43.19-.61,3.84-5.11,16.51-22.09,18.95-22.9,12.21-4.19,26.74,7.91,31.51,14.07,2.09,2.67,2.68,4.53,1.98,5.7l-1.74,2.79c-4.65,7.56-16.74,27.56-29.07,39.99-7.21,7.21-13.72,9.77-19.77,9.77Z"/>
      <path d="M409.84,423.24h-.46c-.11-.06-.21-.14-.29-.24-.08-.1-.13-.21-.15-.34-.02-.13-.02-.25.02-.38s.1-.23.18-.32c1.56-2.31,2.95-4.71,4.19-7.21,2.03-3.56,3.39-7.36,4.07-11.4.7-5.11,1.86-8.14,4.77-15.58l.46-1.16c2.44-6.51,5-9.42,7.91-8.95.9.1,1.59.53,2.09,1.28.93,1.28.7,3.6-.7,7.91s-1.51,9.3-1.05,10.46c1.86-1.16,11.63-10.69,15.58-18.14s5.93-10.58,8.6-9.42c2.67,1.16,2.09,2.56,1.86,4.77v.58c-.23,2.91-5.46,13.6-10.93,20.93-.16.19-.36.29-.61.31-.24.02-.47-.04-.66-.2-.18-.14-.28-.33-.31-.56-.02-.23.04-.43.19-.6,5.58-7.44,10.35-17.79,10.58-20v-.58c.23-2.44.11-2.56-.93-3.03-1.05-.46-2.44,1.4-6.28,8.6s-15.11,18.95-17.09,19.07c-.51.08-.94-.07-1.28-.46-1.28-1.74-.69-7.79.7-12.32.47-1.28,1.63-5.23.93-6.4-.21-.36-.52-.55-.93-.58-1.86-.23-4.07,2.56-6.05,7.91l-.46,1.16c-2.91,7.56-3.95,10.35-4.65,15.23-.7,4.23-2.09,8.22-4.19,11.97-2.09,3.84-4.42,7.32-4.42,7.44-.19.19-.43.27-.7.23Z"/>
      <path d="M450.89,398.01l-.7-.23c-.16-.16-.24-.35-.24-.58s.08-.42.24-.58c5.11-5.58,13.26-23.6,10.93-25.93-.46-.64-1.08-.95-1.86-.93-.75.06-1.41.33-1.98.81-.16.16-.34.24-.56.27-.22.02-.42-.03-.6-.15-.17-.17-.26-.38-.28-.62-.02-.23.04-.45.16-.66.93-.83,2.02-1.29,3.26-1.4,1.25.01,2.3.47,3.14,1.4,3.26,3.49-5.23,22.2-10.93,28.37l-.58.23Z"/>
      <path d="M454.14,404.17h-.46c-.17-.14-.28-.32-.33-.54-.04-.22-.01-.43.09-.63,10.12-16.51,11.05-25.34,10.82-26.85-.23-1.52-1.05-1.98-1.28-1.98s-.44-.07-.62-.23-.28-.35-.31-.58c0-.23.08-.44.23-.62.15-.18.35-.28.58-.31.11,0,2.32-.35,3.02,3.38.7,3.72-.7,11.51-10.93,28.02-.21.27-.48.38-.81.35Z"/>
      <path d="M432.17,435.1h-.47c-.22-.1-.36-.27-.43-.51-.07-.23-.04-.45.08-.66,5-7.91,5.58-8.14,5.82-8.26,4.53-2.27,8.61-5.16,12.26-8.67,3.65-3.51,6.69-7.48,9.14-11.91,6.04-10.35,3.02-16.51,2.91-16.63-.06-.11-.09-.22-.1-.34s.01-.23.06-.35c.05-.11.11-.21.2-.29s.19-.14.31-.18c.21-.13.43-.16.66-.09.23.07.4.21.5.43.12.23,3.49,7.09-3.02,18.37-2.52,4.57-5.66,8.67-9.43,12.28-3.77,3.61-7.99,6.57-12.67,8.89-.46.58-3.03,4.3-5.11,7.67-.2.17-.44.24-.7.23Z"/>
      <path class="cls-77" d="M231.12,445.56h-107.21s-13.26,2.79-12.09,15.81l30.11,149.98,11.63,37.32s2.09,16.63,19.53,18.49c8.95,1.05,108.26.23,133.49-.12,3.84,0,5.93-3.83,4.42-7.67l-62.56-200.55s-3.95-8.26-6.4-10.11-10.93-3.14-10.93-3.14Z"/>
      <path d="M176.7,668.32c-16.63,0-20.58-10.7-23.37-18.6-.7-1.63-1.16-3.14-1.86-4.42-3.72-7.67-37.21-167.77-39.77-184.74-.7-4.42.23-8.14,2.68-10.81,5.46-5.7,16.51-4.77,16.97-4.65h94.89c1.16-.12,17.68-2.09,21.98,10.46s62.21,199.74,63.26,203.34,1.05,4.77-.12,6.28c-2.44,3.38-8.95,2.68-9.18,2.68l-125.47.46ZM129.14,446.73c-3.37,0-9.88.47-13.49,4.3-3.6,3.84-2.91,5.35-2.32,9.3,2.56,16.05,36.16,176.95,39.77,184.28.58,1.28,1.17,2.91,1.86,4.54,2.79,7.79,6.28,17.44,21.74,17.44l125.58-.58c1.63.23,6.16.11,7.67-1.98,1.52-2.09.7-2.56-.11-4.54-.58-1.86-58.6-189.51-63.26-203.34-3.95-11.63-20-9.3-20.23-9.3h-97.21v-.12Z"/>
      <path d="M279.73,531.02c-.14.06-.29.09-.44.08s-.29-.05-.42-.13c-.13-.08-.23-.19-.31-.31-.08-.13-.13-.27-.14-.42s.02-.3.08-.44.15-.26.27-.35c.11-.1.25-.16.4-.19.15-.03.29-.03.44.02.12,0,16.63-1.74,35.35-12.32.1-.11.22-.19.35-.25s.28-.08.43-.07.29.06.41.14.23.18.3.31c.08.13.13.26.14.41.02.15,0,.29-.06.43-.06.14-.14.26-.25.35-.11.1-.24.16-.39.2-19.07,10.81-35.93,12.56-36.16,12.56Z"/>
      <path class="cls-83" d="M436.7,191.65h-110.93c-6.28,0-13.03,5.11-15.12,11.39l-9.65,29.65c-1.97,6.28,1.4,11.39,7.68,11.39h16.51l-4.19,12.91c-.46,1.4.93,2.09,2.21,1.16l19.65-14.07h76.86c6.28,0,13.02-5.11,15-11.39l9.65-29.65c2.09-6.28-1.4-11.39-7.68-11.39Z"/>
      <path d="M321.94,259.43c-.42,0-.81-.13-1.16-.35-.35-.28-.59-.63-.72-1.05-.13-.43-.12-.85.03-1.28l3.95-11.86h-15.35c-1.47.1-2.88-.16-4.22-.78-1.34-.62-2.45-1.52-3.33-2.7-.9-1.32-1.43-2.78-1.59-4.36-.17-1.59.05-3.12.66-4.59l9.65-29.65c2.09-6.63,9.3-11.98,15.93-11.98h110.93c1.47-.06,2.87.21,4.2.83s2.45,1.51,3.36,2.66c.89,1.32,1.42,2.78,1.58,4.36.17,1.59-.05,3.12-.66,4.59l-9.65,29.77c-2.09,6.51-9.19,11.85-15.81,11.85h-76.51l-19.54,13.95c-.51.41-1.09.6-1.74.58ZM325.78,192.57c-5.93,0-12.33,4.77-14.3,10.7l-9.65,29.77c-.47,1.23-.63,2.51-.48,3.82.14,1.31.57,2.52,1.3,3.62.72.92,1.63,1.61,2.69,2.08,1.07.47,2.19.67,3.35.59h16.51l.7.35c.16.25.19.53.11.81l-4.18,13.02s-.12.23,0,.35c.11.11.46,0,.81-.23l19.77-14.07.47-.23h76.86c5.93,0,12.32-4.77,14.19-10.7l9.65-29.65c.93-2.91.7-5.58-.7-7.44-.73-.96-1.64-1.68-2.73-2.18s-2.24-.7-3.44-.61h-110.93Z"/>
      <path d="M392.17,209.78h-62.09c-.23,0-.44-.07-.62-.23s-.28-.35-.31-.58c0-.26.09-.48.27-.66s.4-.28.66-.28h62.09c.13-.02.26-.01.38.03.13.04.23.1.32.2.09.09.16.2.2.32.04.13.05.25.03.38,0,.25-.09.45-.28.62s-.41.23-.65.19Z"/>
      <path d="M354.49,220.13h-27.79c-.23-.03-.43-.14-.58-.31s-.23-.39-.23-.62.08-.42.24-.57c.16-.16.35-.24.57-.24h27.79c.22,0,.42.08.58.24s.23.35.23.57c0,.23-.07.44-.23.62s-.35.28-.58.31Z"/>
      <path d="M372.52,230.48h-49.19c-.23-.03-.43-.13-.58-.31s-.23-.39-.23-.62c0-.22.08-.42.23-.58.16-.16.35-.23.58-.23h49.19c.22,0,.42.08.57.23s.24.35.24.58-.07.44-.23.62-.35.28-.58.31Z"/>
      <path class="cls-75" d="M753.57,351.63h-113.03c-.51-.01-1.02-.07-1.51-.2-.49-.12-.97-.3-1.43-.53s-.88-.52-1.27-.85c-.39-.33-.74-.7-1.04-1.11-.31-.41-.56-.85-.76-1.32s-.35-.95-.44-1.46c-.09-.5-.12-1.01-.09-1.52.03-.51.11-1.01.26-1.5l49.88-157.3c.21-.67.52-1.29.93-1.86s.89-1.07,1.45-1.48c.57-.42,1.18-.74,1.85-.96.67-.22,1.35-.33,2.05-.34h113.02c.52,0,1.03.07,1.53.19.51.13.98.3,1.45.54.46.23.89.52,1.28.86.39.33.74.71,1.05,1.13.31.42.56.86.76,1.34.2.48.34.97.43,1.48.08.51.11,1.02.07,1.54-.04.52-.14,1.02-.29,1.52l-49.89,157.3c-.22.66-.54,1.27-.95,1.83-.41.56-.9,1.05-1.46,1.45s-1.18.71-1.84.93c-.66.21-1.34.32-2.03.32Z"/>
      <path d="M753.57,352.55h-113.03c-1.2,0-2.34-.27-3.41-.82-1.07-.56-1.95-1.33-2.64-2.32-.69-.94-1.13-1.98-1.31-3.13-.18-1.15-.09-2.28.27-3.39l49.89-157.42c.24-.75.6-1.44,1.06-2.07.46-.63,1.02-1.18,1.65-1.64.64-.46,1.33-.81,2.08-1.05.75-.24,1.52-.36,2.3-.36h113.02c1.19,0,2.32.26,3.39.79,1.07.54,1.95,1.28,2.66,2.24.69.96,1.13,2.02,1.31,3.19.19,1.17.1,2.31-.27,3.44l-49.89,157.31c-.23.76-.58,1.46-1.04,2.1-.46.65-1.01,1.2-1.65,1.67-.64.47-1.33.83-2.08,1.08-.76.25-1.53.38-2.32.38ZM690.43,182.11c-.6,0-1.19.1-1.77.29-.57.19-1.1.46-1.59.81s-.92.78-1.28,1.26c-.35.49-.63,1.02-.83,1.59l-49.88,157.31c-.25.87-.3,1.75-.16,2.65.14.9.46,1.72.97,2.47.56.72,1.25,1.28,2.06,1.69.82.41,1.68.62,2.59.64h113.03c.6,0,1.18-.09,1.75-.28s1.09-.46,1.57-.82c.48-.35.9-.78,1.24-1.27.34-.49.6-1.02.78-1.59l50-157.42c.26-.86.3-1.73.14-2.61-.17-.88-.52-1.68-1.07-2.39-.51-.74-1.17-1.33-1.97-1.74-.8-.41-1.66-.61-2.56-.59h-113.02Z"/>
      <path class="cls-81" d="M808.22,193.62h-126.74l3.26-10.46c.2-.67.51-1.29.91-1.85.41-.57.9-1.06,1.46-1.47.57-.41,1.18-.72,1.85-.93.67-.21,1.35-.3,2.05-.28h113.03c.51,0,1.01.06,1.51.19.49.12.97.3,1.42.53s.88.52,1.27.85c.39.33.73.7,1.03,1.11.3.42.55.85.74,1.33.2.47.34.96.42,1.46.08.51.1,1.01.07,1.52-.04.51-.14,1.01-.29,1.49l-1.97,6.51Z"/>
      <path d="M808.22,194.43h-126.74c-.33.01-.6-.1-.82-.34-.1-.27-.14-.54-.11-.82l3.38-10.34c.22-.77.57-1.47,1.03-2.12.45-.65,1.01-1.21,1.64-1.68.64-.47,1.34-.83,2.1-1.08.76-.24,1.53-.36,2.32-.35h113.03c.58,0,1.16.07,1.72.21.57.14,1.11.33,1.63.6.52.26,1,.58,1.44.96.45.38.84.8,1.19,1.27.34.47.63.97.85,1.51.23.54.39,1.09.48,1.67.1.58.13,1.16.09,1.73-.04.58-.15,1.15-.32,1.71l-2.09,6.51c-.15.36-.42.56-.81.58ZM682.63,192.69h124.89l1.86-5.81c.28-.87.35-1.76.21-2.66-.15-.91-.48-1.72-1.02-2.46-.52-.74-1.17-1.32-1.97-1.73-.81-.41-1.66-.61-2.56-.59h-113.03c-.6,0-1.19.1-1.77.29-.57.19-1.11.46-1.6.82s-.91.77-1.27,1.26c-.36.48-.64,1.02-.83,1.59l-2.91,9.3Z"/>
      <path class="cls-76" d="M718.22,271.4h-37.33c-.34,0-.66-.09-.97-.24-.3-.16-.56-.37-.76-.65-.2-.27-.34-.57-.4-.91-.07-.33-.05-.67.04-.99l16.51-51.97c.15-.45.42-.81.81-1.09.39-.28.81-.42,1.29-.42h37.33c.34,0,.66.08.96.24.31.16.56.37.77.64.2.28.34.58.4.91.06.34.05.67-.04,1l-16.52,51.97c-.17.43-.45.78-.83,1.05-.38.28-.8.43-1.26.46Z"/>
      <path d="M718.22,272.22h-37.33c-.99-.02-1.8-.4-2.44-1.16-.58-.86-.74-1.79-.46-2.79l16.51-51.85c.18-.65.54-1.18,1.08-1.59.54-.41,1.15-.61,1.82-.62h37.33c.48,0,.94.12,1.38.35.43.22.79.54,1.07.93.58.82.73,1.71.46,2.67l-16.51,51.97c-.09.31-.23.6-.42.87-.19.26-.42.49-.68.68-.27.19-.55.33-.86.42-.31.09-.63.14-.95.12ZM697.4,215.94c-.29.01-.55.1-.78.27-.23.17-.4.39-.49.67l-16.4,51.97c-.14.41-.1.79.11,1.16.27.33.62.48,1.05.46h37.33c.27,0,.53-.07.76-.21.23-.15.41-.35.52-.6l16.4-51.97c.16-.41.12-.8-.11-1.16-.26-.36-.61-.55-1.05-.58h-37.33Z"/>
      <path d="M749.84,306.05h-76.4c-.24-.03-.45-.13-.63-.3s-.27-.38-.3-.63c.03-.23.13-.43.31-.59.18-.15.39-.23.62-.23h76.4c.22,0,.42.08.58.24.16.16.23.35.23.58,0,.23-.07.44-.23.62-.16.18-.35.28-.58.31Z"/>
      <path d="M724.84,317.79h-55.11c-.26,0-.48-.09-.66-.28-.18-.18-.28-.4-.28-.66.03-.23.14-.43.31-.58s.39-.23.62-.23h55.11c.22,0,.42.08.58.24s.23.35.23.57c.04.25-.03.46-.19.65-.16.19-.37.28-.62.28Z"/>
      <path d="M693.45,331.04h-27.91c-.24-.03-.45-.13-.63-.3-.17-.18-.28-.39-.3-.63.03-.23.14-.43.31-.58s.39-.23.62-.23h27.91c.22,0,.42.08.58.23.16.16.23.35.24.58,0,.23-.08.44-.23.62-.15.18-.35.28-.58.31Z"/>
      <path d="M780.78,229.9h-36.63c-.22,0-.42-.08-.57-.24-.16-.16-.24-.35-.24-.57,0-.24.07-.44.23-.62s.35-.28.58-.31h36.63c.24.03.45.13.63.3s.27.39.3.63c-.03.23-.13.43-.31.58-.18.15-.39.23-.62.23Z"/>
      <path d="M776.94,241.64h-36.51c-.22,0-.42-.08-.58-.23-.16-.16-.24-.35-.24-.58s.08-.44.23-.62c.15-.18.35-.28.58-.31h36.51c.24.03.45.13.63.3.17.18.28.39.3.63-.03.23-.14.43-.31.58s-.39.23-.62.23Z"/>
      <path d="M764.14,254.89h-27.91c-.23,0-.44-.07-.62-.23s-.28-.35-.31-.58c0-.26.09-.47.28-.66s.4-.28.66-.28h27.91c.26,0,.48.09.66.28.18.18.28.4.28.66-.03.23-.14.43-.31.58s-.39.23-.62.23Z"/>
      <path class="cls-75" d="M696.35,186.3c0,.28-.05.54-.16.8-.11.26-.26.48-.45.68-.2.2-.42.35-.68.45-.26.11-.52.16-.8.16s-.55-.05-.8-.16c-.26-.1-.48-.26-.68-.45-.19-.2-.34-.42-.45-.68-.1-.26-.16-.53-.16-.8s.05-.55.16-.8c.11-.26.26-.48.45-.68s.42-.35.68-.45c.26-.11.52-.16.8-.16s.54.05.8.16c.26.1.48.26.68.45s.34.42.45.68c.1.26.16.53.16.8Z"/>
      <path d="M694.26,189.21c-.39,0-.76-.07-1.11-.22-.35-.15-.67-.35-.94-.63s-.48-.58-.63-.94c-.15-.35-.22-.72-.22-1.11s.07-.76.22-1.11c.15-.36.35-.67.63-.94s.59-.48.94-.63c.35-.15.73-.22,1.11-.22s.76.07,1.11.22c.36.15.67.36.95.63.27.27.48.59.63.94.15.36.22.73.22,1.11s-.07.76-.22,1.11c-.15.35-.36.67-.63.94-.28.27-.59.48-.95.63-.35.15-.72.22-1.11.22ZM694.26,185.14c-.32,0-.6.11-.82.34-.23.23-.34.5-.34.82.03.31.15.57.37.79s.48.34.8.37c.33,0,.62-.11.86-.33s.38-.5.41-.83c0-.17-.03-.32-.1-.47s-.16-.28-.28-.39c-.12-.11-.26-.19-.42-.24s-.32-.07-.48-.05Z"/>
      <path class="cls-75" d="M706.35,186.3c0,.28-.05.54-.16.8-.11.26-.26.48-.45.68-.2.2-.43.35-.68.45-.26.11-.52.16-.8.16s-.54-.05-.8-.16c-.26-.1-.48-.26-.68-.45-.19-.2-.34-.42-.45-.68-.1-.26-.16-.53-.16-.8s.05-.55.16-.8c.11-.26.26-.48.45-.68s.42-.35.68-.45c.26-.11.52-.16.8-.16s.55.05.8.16c.26.1.48.26.68.45s.34.42.45.68c.1.26.16.53.16.8Z"/>
      <path d="M704.26,189.21c-.39,0-.76-.07-1.11-.22-.36-.15-.67-.36-.94-.63s-.48-.59-.63-.95c-.15-.35-.22-.72-.22-1.11s.08-.76.22-1.11c.15-.35.35-.67.63-.94s.58-.48.94-.63c.35-.15.72-.22,1.11-.22s.76.07,1.11.22c.35.15.67.36.94.63.27.28.48.59.63.94.15.36.22.73.22,1.11s-.08.76-.22,1.11c-.15.36-.36.67-.63.95-.27.27-.59.48-.94.63-.35.15-.72.22-1.11.22ZM704.26,185.14c-.16-.02-.31,0-.46.05s-.29.14-.4.25c-.11.11-.2.24-.25.4-.05.16-.07.31-.05.47,0,.32.11.59.34.82s.5.34.82.34c.31-.03.58-.15.8-.37s.34-.48.37-.79c0-.32-.11-.59-.34-.82-.22-.23-.5-.34-.82-.34Z"/>
      <path class="cls-75" d="M716.24,186.3c0,.28-.05.54-.16.8-.1.26-.26.48-.45.68-.19.2-.42.35-.68.45-.26.11-.53.16-.8.16s-.54-.05-.8-.16c-.26-.1-.48-.26-.68-.45s-.35-.42-.45-.68c-.11-.26-.16-.53-.16-.8s.05-.55.16-.8c.1-.26.26-.48.45-.68.2-.2.42-.35.68-.45.26-.11.53-.16.8-.16s.55.05.8.16c.26.1.48.26.68.45.2.19.35.42.45.68.11.26.16.53.16.8Z"/>
      <path d="M714.14,189.21c-.39,0-.76-.07-1.11-.22-.36-.15-.67-.36-.94-.63s-.48-.59-.63-.95c-.15-.35-.22-.72-.22-1.11s.07-.76.22-1.11c.15-.35.35-.67.63-.94s.58-.48.94-.63c.35-.15.72-.22,1.11-.22s.76.07,1.11.22c.35.15.67.36.94.63.27.28.48.59.63.94.15.36.22.73.22,1.11s-.07.76-.22,1.11c-.15.36-.36.67-.63.95-.28.27-.59.48-.94.63-.36.15-.73.22-1.11.22ZM714.14,185.14c-.16-.02-.31,0-.46.05s-.29.14-.4.25c-.11.11-.19.24-.24.4-.05.16-.07.31-.05.47,0,.32.11.59.34.82.23.22.51.34.82.34s.59-.11.82-.34c.23-.23.34-.5.34-.82.02-.16,0-.31-.05-.47-.05-.15-.14-.28-.25-.4s-.24-.2-.4-.25-.31-.07-.47-.05Z"/>
      <path class="cls-75" d="M456.59,460.91h21.63c1.06,0,2.11.1,3.15.31,1.04.21,2.05.52,3.03.92s1.91.9,2.8,1.49c.88.59,1.7,1.26,2.45,2.01s1.42,1.57,2.01,2.45c.59.88,1.09,1.81,1.49,2.79s.71,1.99.92,3.03.31,2.09.31,3.15c0,.45-.09.88-.26,1.29-.17.42-.42.78-.73,1.09-.32.32-.68.56-1.09.73-.41.17-.84.26-1.29.26h-47.09c-.45,0-.88-.09-1.29-.26-.42-.17-.78-.42-1.09-.73-.32-.31-.56-.68-.73-1.09-.17-.41-.26-.84-.26-1.29,0-1.06.1-2.11.31-3.15.2-1.04.51-2.05.92-3.03s.91-1.91,1.49-2.79c.59-.89,1.26-1.7,2.01-2.45.75-.75,1.57-1.42,2.45-2.01.89-.59,1.82-1.09,2.8-1.49s1.99-.71,3.03-.92c1.04-.2,2.09-.31,3.15-.31h-.11Z"/>
      <path d="M491,481.37h-47.09c-.57,0-1.12-.11-1.65-.32-.53-.22-.99-.53-1.4-.94s-.71-.86-.93-1.39c-.22-.53-.33-1.08-.33-1.65,0-1.11.11-2.21.33-3.31s.54-2.16.97-3.19c.43-1.03.95-2.01,1.57-2.93s1.32-1.79,2.11-2.57c.79-.79,1.65-1.49,2.57-2.11s1.91-1.15,2.94-1.57c1.03-.42,2.09-.74,3.18-.96s2.2-.33,3.31-.33h21.63c1.12,0,2.23.1,3.33.31,1.1.21,2.17.53,3.2.95s2.02.94,2.95,1.56c.93.61,1.8,1.32,2.59,2.11.79.79,1.51,1.65,2.13,2.58.63.93,1.16,1.91,1.58,2.94.43,1.04.76,2.1.97,3.2s.33,2.21.33,3.32c-.01.57-.13,1.11-.35,1.63s-.54.98-.94,1.38-.86.71-1.38.94-1.06.34-1.63.35ZM456.59,461.84c-1,0-1.99.1-2.97.29-.98.2-1.93.48-2.85.87-.93.38-1.8.85-2.64,1.41s-1.6,1.19-2.31,1.9c-.71.7-1.34,1.47-1.9,2.31-.55.83-1.03,1.71-1.41,2.63-.39.93-.67,1.88-.86,2.86-.2.98-.3,1.97-.3,2.97,0,.34.07.67.2.98.13.32.31.59.55.83s.52.42.83.55c.31.13.64.2.98.2h47.09c.34,0,.67-.07.98-.2.32-.13.59-.31.83-.55s.42-.52.55-.83c.13-.31.2-.64.2-.98-.01-1-.11-1.99-.32-2.97-.2-.98-.49-1.94-.89-2.86-.39-.93-.86-1.8-1.43-2.64-.56-.83-1.2-1.6-1.91-2.31-.71-.7-1.49-1.33-2.32-1.89-.84-.55-1.72-1.02-2.65-1.41-.93-.38-1.88-.67-2.86-.86-.98-.19-1.98-.29-2.98-.29h-21.63Z"/>
      <path d="M408.57,641.35s8.37,29.88,24.65,50.92l-3.84-17.67s-14.54-21.04-20.81-33.25"/>
      <path d="M308.1,649.61l12.56.81s-12.44,8.6-7.67,16.74h-6.4s6.05,0,4.07-8.03c-1.97-8.02-2.56-9.53-2.56-9.53Z"/>
    </g>
  </g>
</svg>